<svg version="1" xmlns="http://www.w3.org/2000/svg">
    <path d="M98.6 121.2c-2 2.9-2 4.7 0 6.9 1.8 2 1.2 5.3-.8 4.7-.7-.3-1.5-1.5-1.8-2.9-.9-3.9-5.5-3.9-7.8 0-1.2 2.2-2.4 3.1-4.4 3.1-3.1 0-7.8 5-7.8 8.4 0 1.3-.9 3.1-2 4.1-1.8 1.7-2.5 1.7-5.6.6-1.9-.7-4.8-1-6.5-.6-3.6.8-5.9-.8-5.9-4 0-3.9-1.1-5.5-3.9-5.5-1.4 0-3.9-.7-5.5-1.5-1.6-.9-3-1.4-3-1.3-.1.2-.8 2.5-1.4 5.3-.7 2.7-1.8 5.5-2.4 6.2-1.6 2-8.9 1.6-11.8-.7-1.4-1.1-4.1-2-6.1-2-3.5 0-3.8.3-5.9 5.2-2.4 5.9-8.5 12.8-11.1 12.8-3.2 0-4-2.4-3.3-9.9.5-5 .4-7.1-.5-7.1-.8 0-1.1 18.1-1.1 70 0 38.5.2 70 .5 70 .2 0 1.9-.9 3.7-2 2-1.2 5.1-2 7.8-2 4.3 0 7.4-1.4 10.9-4.8 2.6-2.6 10-.7 14.4 3.6 4.5 4.4 5.4 7.1 3.6 11.3-1.1 2.8-1 3.3.9 4.8 1.1.9 2.8 3.8 3.7 6.6 1 2.7 2.6 5.9 3.6 7.1 2.9 3.1 2.3 5.6-2.1 8.6-5 3.5-5.3 6.9-1 11.8 3.6 4.3 3.7 5.7.4 9.1-2.5 2.7-4.6 10.9-2.7 10.9 1.9 0 11.6 7 14 10.2 2.1 2.9 2.4 4 1.9 8.5-.4 2.9-.3 5.3.1 5.4 9.9.9 12 2.6 19.2 16.4 1.6 3.1 3.3 4.5 8.2 6.7 7 3.2 9.4 3.5 10.3 1.2.7-1.9-1.3-4.6-9.9-13.5-4.4-4.5-6.7-7.8-7.4-10.7-.6-2.2-2.3-5-3.6-6-3.2-2.6-5.5-6.9-5.5-10.7 0-4.7-2.8-11.6-5.6-13.8-2.5-2-2.6-2.1-1.9-11.1 1.1-13.7 1-15.4-2.6-24.3-1.8-4.4.1-6.7 4.8-5.8 3 .5 3.7.1 7.8-4.2 2.5-2.6 4.5-5.4 4.5-6.3 0-2.3-2-4-4.7-4-3.5 0-6.3-3.4-6.3-7.8-.1-2-.7-4.8-1.5-6.2-2.3-3.9-1.8-6 2.4-10.1 2.8-2.9 4.7-3.9 7-3.9 2.4 0 3.4-.6 4.3-2.4 1-2.2.6-3-3.3-7.5-2.6-3-5.3-5-6.5-5.1-3.8 0-4.6-2.2-3-8.1 2.6-9.5 3.7-11.9 6.7-13.4 3.1-1.7 4.9-4.3 4.9-7.3 0-3.6 3.8-7.2 7.6-7.2 5.3 0 5.5-2.5.5-7-4.9-4.5-5.4-8.3-1.6-12.4 1.4-1.5 2.5-3.1 2.5-3.5 0-.4 2.3-1.8 5-3.1 4.2-2 5-2.8 5-5.1 0-4.7 1-5.9 4.6-5.9 3.1 0 3.7-.4 5.3-4.4 1.1-2.4 2.6-4.6 3.5-4.9 1.3-.5 1.6-2.4 1.6-11.4l-.1-10.8-4.7-9.4c-2.6-5.2-5.3-9.6-5.9-9.8-.6-.2-1.8.6-2.7 1.9z" fill="#57FCB2"/>
    <path d="M738.7 124.6c-.3.4-3.9.8-7.9 1-9.4.5-10.7 1-11.3 4.2-.3 1.5-1.2 4-2 5.5-.8 1.6-1.5 4.1-1.5 5.7 0 2.6-3.8 7-6.1 7-.4 0-2.9 1.4-5.4 3.1-2.5 1.7-6.9 3.7-9.8 4.5-7.2 1.9-9 4.8-6.7 10.9 1 2.6 0 8-3.4 17.5-2.6 7.4-2.1 11.4 1.9 15.8 3.8 4.3 7.4 11.5 7.5 15 0 1.2-1.2 4.5-2.6 7.2-2.2 4.1-2.5 5.8-2 9.7.9 6.7.9 8.2.1 13-1 5.8.8 9.8 5.7 12.5l3.9 2.2-.6 5.7c-.5 4.1-.2 7 1 10.5 2.4 7.1 4 9.1 9.5 11.9 5.5 2.8 7.3 5.2 6.8 9.3-.4 3.8-5.3 5.3-14 4.6-6.6-.6-6.7-.6-13.8 4-3.9 2.5-7.3 5.3-7.7 6.2-.3.9.2 3.1 1.1 5 2 4.2 2 12 .1 15.4-.8 1.4-1.5 3.8-1.5 5.5-.1 2.9-1.1 6.2-5.9 18.5-2.4 6.2-2.7 10.3-.8 11.7.6.6 5.5 1.6 10.7 2.2 5.2.7 10 1.7 10.7 2.3.7.6 1.3 2.3 1.3 3.9 0 2.6.4 2.8 5.8 3.9 3.1.6 7.3 1.6 9.2 2.1 4.8 1.2 10.7 1.1 13.3-.3 1.2-.6 5.4-1.2 9.2-1.2l7-.1.3-128.3c.1-70.5-.2-128.2-.6-128.2-.5 0-1.1.3-1.5.6z" fill="#106353"/>
    <path d="M118.1 29c-3 1.1-6.4 2.8-7.5 3.9-2.8 2.6-6.9 4.1-11.6 4.1-2.2 0-6.3 1.3-10 3.1-6.6 3.2-5.9 3.2-21.5 1.4-4.4-.6-5.7-.2-10.5 2.5-3 1.7-7.5 4-10 5.1-2.5 1.2-5.4 2.9-6.5 3.9-4 3.5-11.8 7-15.4 7-2 0-5.5-.9-7.6-2.1-2.4-1.2-6.8-2.3-10.7-2.6L0 54.7v44.2C0 131.3.3 143 1.1 143c.9 0 1 2.1.5 7.1-.7 7.5.1 9.9 3.3 9.9 2.6 0 8.7-6.9 11.1-12.8 2.1-4.9 2.4-5.2 5.9-5.2 2 0 4.7.9 6.1 2 2.9 2.3 10.2 2.7 11.8.7.6-.7 1.7-3.5 2.4-6.2.6-2.8 1.3-5.1 1.4-5.3 0-.1 1.4.4 3 1.3 1.6.8 4.1 1.5 5.5 1.5 2.8 0 3.9 1.6 3.9 5.5 0 3.2 2.3 4.8 5.9 4 1.7-.4 4.6-.1 6.5.6 3.1 1.1 3.8 1.1 5.6-.6 1.1-1 2-2.8 2-4.1 0-3.4 4.7-8.4 7.8-8.4 2 0 3.2-.9 4.4-3.1 2.3-3.9 6.9-3.9 7.8 0 .3 1.4 1.1 2.6 1.8 2.9 2 .6 2.6-2.7.8-4.7-2.3-2.6-2-4.7 1.4-8.3 3.5-3.7 3.7-5.1 1-10.3-2.8-5.4-2.5-6.9 1.5-9.9 2.9-2.2 3.3-3 2.5-4.6-1.3-2.4-1.3-5.7 0-6.5.6-.3 2.5-.1 4.4.6 4.9 1.8 8.2.5 10.6-4.1 2.5-5 7.1-7.6 10.9-6.2 4 1.6 10 2.4 12.2 1.7 1.1-.4 3.1-2.4 4.4-4.5 1.8-2.9 3.2-3.9 6.2-4.4 6.4-1.2 7.1-1.6 9.4-5.2l2.1-3.5-2.1-2.3c-1.2-1.3-2.5-3.6-3-5.2-.5-2-2.1-3.7-5-5.2-2.9-1.7-4.4-3.2-4.7-5.2-.6-2.9-6.1-6.5-13.5-8.9-2.3-.8-4.4-2.5-6-4.9-2.9-4.5-5.4-4.9-12.8-2.2z" fill="#98CA1D"/>
    <path d="M683.4 138.5c-1.9 2.9-4.9 3.2-7.7.7-2.9-2.6-20.6-2.1-25.2.8-2 1.2-5 2-7.7 2-2.8 0-5 .6-5.8 1.5-1.6 1.9-8.9 1.9-11.4 0-2.8-2.1-4.4-1.9-7.8 1-3.5 2.9-7.1 3.2-9.6.7-2.3-2.3-4.8-1.7-6.2 1.7-1.4 3.5-.8 23.5 1 30.6 3.3 13.5 1.9 28.1-3.3 33.6-2.3 2.4-6.4 8.9-9.6 15.3-1.8 3.6-1.8 3.9-.1 5.6.9.9 2 3.5 2.3 5.6.4 2.3 1.9 5.3 3.6 7.1 2.7 3 3.6 3.3 8.5 3.3 5.5 0 8.6 1.6 8.6 4.4 0 .7.9 2.5 2 3.8 1 1.4 2.3 4.4 2.8 6.6 1.1 4.5 6.5 12.2 8.7 12.2.8 0 2.5-.5 3.9-1.1 1.3-.6 3.5-.9 4.8-.6 2.6.7 8.4 8 11.7 14.7 1.2 2.5 3.6 6.6 5.4 9.1 1.7 2.5 3.7 5.5 4.3 6.5 1 1.7 1.6 1.7 7.5.6 6.6-1.2 9.8-3.7 9.9-7.5 0-2.9-3.2-12-5.2-14.6-2.9-3.8-2.5-15.7.7-21.8 1.3-2.7 3.4-7.4 4.6-10.5 2.2-5.9 5.6-9.7 11.8-13 2.7-1.5 3.1-2.2 3.1-6 0-2.7.9-6.1 2.5-9 1.4-2.6 2.5-5.7 2.5-7-.1-3.5-3.6-10.7-7.5-15-4-4.4-4.5-8.4-1.9-15.8 3.6-10.2 4.3-14.3 3.2-18.3-1.6-5.4 0-8.3 5.4-9.7 8-2 16.5-7.3 14.1-8.8-.5-.4-1.5-1.6-2.1-2.8-.8-1.5-2.5-2.3-5.8-2.8-2.7-.3-5.8-1.6-7.6-3.1-3.7-3.2-6.3-3.2-8.4 0z" fill="#6A5015"/>
    <path d="M572.9 25.3c-2 1.2-4.8 3-6.2 4-2.9 2.1-7.9 2.6-30.2 3.1-16.2.3-18.6.9-21 5.5-.8 1.6-3.6 5.3-6.3 8.2-8.2 9-9.4 12.7-7.8 24.1.8 5.7.8 5.8-2 6.9-5.3 2.1-5.9 2.6-7.7 6.4-1.3 2.7-1.7 5.2-1.4 8.4.5 4.7 2.2 11.9 3 12.7.2.3 3.8.7 7.8 1 9.1.6 17.5 3 21.2 6.1 1.6 1.3 3.5 2.3 4.3 2.3.8 0 2.4 1 3.5 2.1 1.2 1.2 3.6 2.5 5.3 3 12.7 3.2 26.8 8.5 28.4 10.6 1.3 1.9 9.1 3.4 18.6 3.6 5.5.2 6.1.4 7.6 3.2 1.4 2.5 2.5 3.1 6.6 3.7 2.7.4 5.4 1.4 6.1 2.4 2.6 3.5 4.7.4 6.8-9.9.3-1.5 1.9-4.2 3.6-6 4.8-4.9 6.3-8.5 7.1-16.7 1.3-13.4 2.8-20.4 7-32.5 1.4-4 2.8-10 3.8-16 .4-2.8 1.1-6 1.5-7.2.5-1.6.3-2.4-.6-2.7-25.1-7.7-36.3-12.5-39.3-16.8C590.3 31.6 579.7 23 578 23c-.8 0-3.1 1-5.1 2.3z" fill="#ED5FFC"/>
    <path d="M341.7.6c-.4.4-.7 1.7-.7 2.9 0 3.4-2.2 4.8-5.3 3.4-3.4-1.5-5.7-.5-5.7 2.4 0 3.6-2.1 4.9-6.9 4.1-3.1-.5-4.2-.3-4.6.8-.7 1.7 2.9 7.9 6.7 11.6 1.6 1.7 2.5 4 3 8.5.4 3.4 1 7.6 1.3 9.3.5 2.1.2 3.4-.9 4.3-1.3 1.1-2.1.8-5.2-1.8-2-1.8-4.1-3-4.7-2.8-.7.2-1.4 2.3-1.7 4.7-.7 5.7-2.8 7.1-6.6 4.1-2.3-1.8-3.5-2.1-7.3-1.5-7 1-7.3 1.3-5 6.3 1.4 3.2 1.9 6.6 1.9 13.3 0 4.9.5 9.8 1.1 11 .6 1.1 3.4 3.1 6.2 4.4 7.3 3.5 13.6 8.1 15.8 11.8 1 1.7 3 4.3 4.4 5.9 1.4 1.5 2.5 3.6 2.5 4.6 0 2 2.6 3.1 7.7 3.1 2.3 0 3.7.7 4.8 2.4 1.9 2.9 5 3.9 6.5 2.1.6-.7 2.3-1.5 3.9-1.8 1.6-.4 4.2-1.8 5.7-3.3 2.6-2.3 3.5-2.6 8.2-2.1 5.1.5 5.3.5 6.9-2.6 3-5.9 4.4-6 10.3-.7 2.4 2.2 4.8 4 5.2 4 .4 0 2.1-2.7 3.8-6 3.6-7.2 6.7-8.6 10.6-4.9l2.5 2.3 2.3-2.8c1.8-2.3 2.8-2.8 4.9-2.2 1.4.3 2.9 1.5 3.2 2.7.8 2.5 9.8 6.6 17.5 8 6.5 1.2 9.8 3.1 11 6.4.9 2.3 5.9 4.5 10.3 4.5 1.1 0 3 .9 4.4 2 1.4 1.1 3.8 2 5.2 2 1.5 0 3.4.9 4.4 2 2 2.4 3 2.5 4.7.5 2-2.4.4-6-3.9-8.8-3.5-2.4-6.1-5.5-13.6-16.7-4.2-6.4-6.2-8-9.8-8-3.6 0-7.7-3-7.7-5.6 0-.8.5-2.4 1.1-3.5 1.6-3.1-.5-4.9-5.7-4.9-2.3 0-4.5-.4-4.9-.9-.3-.6-.7-3.3-.9-6.2-.3-4-.9-5.6-2.7-7-1.3-1-2.7-1.9-3-1.9-.3 0-1.4-1.9-2.5-4.1-1.9-4.4-5.9-6.9-10.8-6.9-1.5 0-3.3-1.1-4.8-3-1.3-1.7-3.3-4.3-4.5-5.9-1.3-1.6-2.3-3.4-2.3-3.9 0-3.7 11.2-15.2 14.8-15.2.6 0 2.3-1.5 3.7-3.4 2.5-3.3 5.2-4.8 10.7-6 3.1-.7 8.6-5.1 7.6-6.1-.3-.4-3.5-.8-7-.8-5.1-.2-6.9.2-9.3 2-2 1.4-5.2 2.4-9.5 2.8-6.3.7-6.6.6-9.8-2.5-3.9-3.7-6.2-3.6-8.1.5-.8 1.7-1.9 3.3-2.5 3.7-2.4 1.6-5.9.7-8.6-2.2-4.1-4.4-6.1-4-5.8 1.2.3 3.9.1 4.3-2.3 4.6-3.3.4-7.5-3-8.9-7.2-.8-2.6-2-3.7-5.3-4.9-4.9-1.8-15-3.1-16-2.1z" fill="#FC2955"/>
    <path d="M666.2 407.6c-3.9 2.3-5.2 4.1-9.9 12.9-4.7 9-5.4 12.6-3.1 16.8 1.4 2.7 2.9 10.4 3.3 17.2.1 2.7.7 6.3 1.4 7.8.6 1.6 1.1 4.2 1.1 5.9 0 1.8.9 5.7 1.9 8.7 1 3.1 2.1 7 2.5 8.8.3 1.7 1.9 5.4 3.7 8.2 3.9 6.4 4.8 12.1 2.5 15.7-1.3 1.8-1.6 3.6-1.1 6.3.5 3.1.1 4.7-2.2 8.6-2.4 4.1-4 5.4-11 8.9-6.9 3.5-8.4 4.7-10.2 8.4-2.5 5-2.6 7.9-.6 10.6.8 1.1 1.5 4.1 1.5 6.7 0 5.7.8 6.4 9.6 8.9 5.9 1.7 8 1.8 16.3 1 13.1-1.3 16.2-2 18.9-4 2.2-1.8 5.7-1.7 6.8.1 1.7 2.8 6.4-.2 16.3-10.4 7.9-8.3 9.7-9 19.2-8.2l7.9.7v-48.7c0-43.4-.2-48.6-1.5-48.1-.9.3-4.4 1.1-8 1.7-6.3 1.2-6.4 1.2-13.7-2.4-4.1-2.1-8.2-3.7-9.2-3.7-2.4 0-6.7-2.4-9.3-5.2-3.1-3.3-8.3-13.8-8.3-16.9 0-6.2-3.4-10.9-11.7-16.2-5.3-3.3-7.6-3.4-13.1-.1z" fill="#3A9F2A"/>
    <path d="M207 243.8c-2.3 1.8-2.3 1.9-.6 6.7.9 2.7 2.5 5.8 3.5 6.9 2 2.1 2.7 7 2.3 15.1-.2 3.1-1.1 4.9-3.8 7.8l-3.6 3.8-6.8-.7c-6-.6-7.3-.4-10.3 1.5-2 1.2-5.1 2.1-7.4 2.1-4.2 0-3.5-.8-10 11.4-1.2 2.2-2.2 5.8-2.3 7.8 0 2.5-.7 4.4-2 5.5-8.2 7.1-17 18-17 21.1 0 .5 2 2.2 4.4 3.6 2.4 1.4 4.6 3.2 4.9 4 .3.7 3.2 2.8 6.4 4.6 3.2 1.8 7.9 4.6 10.4 6.1 8.5 5.3 22.2 8.6 46.9 11 13.5 1.4 15.2 1.4 24.7.4 6.8-.7 7.4-.6 12.5 2.2 2.9 1.6 6.5 3.3 8 3.6 1.4.4 4.1 2.5 5.8 4.7 1.7 2.2 4 4 5 4 2.9 0 7-7.7 7-13 0-4 .5-4.9 5.5-9.8 6.4-6.1 6.6-8.3.9-11-4.1-1.9-4.7-3.9-4.1-12.4.7-8.8 2.1-14.5 4.3-16.9 1.5-1.7 1.9-3.7 1.9-9.7v-7.5l-6-1.3c-3.3-.8-10.5-1.6-16-1.9-8.9-.5-10.8-1-17-4.2-9.5-4.9-12.1-6.8-13.3-10-.6-1.6-1.9-5-2.8-7.8-2-5.3-12.4-16.5-15.5-16.5-2.8 0-5.3-2.7-6.9-7.6-1.3-3.9-2.2-5-4.2-5.2-1.3-.2-3.5.5-4.8 1.6z" fill="#3B3D31"/>
    <path d="M177 .8c0 .4-1.8 2.7-4.1 5.2-6.2 6.8-7.8 9.4-9 14.7-2.8 12.7-3 21.2-.5 23.2.6.4 4.4 1.8 8.3 3 4 1.3 7.6 2.8 8 3.4.4.7 1 3 1.3 5.2.4 3.2 1.3 4.5 5 7.3 2.5 1.9 4.9 4.3 5.4 5.3.7 1.5 1.6 1.8 3.6 1.4 3.5-.8 4.8.9 5.2 6.5.2 3.7.7 4.6 2.5 4.8 3.4.5 6.3-3.1 6.3-7.8 0-2.8.4-4 1.4-4 .8 0 1.8.5 2.1 1 .4.6 2.3 1.9 4.4 2.9 9 4.6 12.6 11.2 7.9 14.3-1.5 1-1.9 2-1.5 3.2.9 2.4 4.1 1.6 4.5-1 .2-1.2 1.4-3.2 2.8-4.5 1.3-1.2 2.4-3.3 2.4-4.6 0-3.4 2.7-4 5.5-1.3 2 1.9 2.7 2.1 4 1 .8-.7 1.5-2.6 1.5-4.2 0-3.6 2-4.4 6.9-2.8 4.6 1.5 7.1.4 9.8-4 .9-1.7 2.1-3 2.7-3 .5 0 2.8-1 5.2-2.2l4.4-2.2 3.2 2.4c3.7 2.7 6.1 1.8 6.6-2.6.5-3.7 1.9-5.4 4.7-5.4 1.2 0 3.3-.9 4.7-1.9 1.3-1.1 5.3-2.5 8.8-3.1 5.9-1.1 6.5-1 9.3 1.1 4 2.9 6 1.6 6.7-4.1.3-2.4 1-4.5 1.7-4.7.6-.2 2.7 1 4.7 2.8 3.1 2.6 3.9 2.9 5.2 1.8 1.1-.9 1.4-2.2.9-4.3-.3-1.7-.9-5.9-1.3-9.4-.6-4.7-1.3-6.8-2.9-8-1.1-.9-2.8-3.1-3.7-4.7-.9-1.7-2.2-3.8-2.9-4.8-1-1.5-.9-2 .6-3.2 1.7-1.2 1.6-1.4-1.3-3.5-3.4-2.4-3.7-4-1.4-7.5l1.6-2.5h-70.6c-38.8 0-70.6.3-70.6.8z" fill="#BB6230"/>
    <path d="M292.1 54c-1.3 1.1-3.3 2-4.6 2-2.8 0-4.2 1.6-4.7 5.4-.5 4.4-2.9 5.3-6.6 2.6l-3.2-2.4-4.4 2.2c-2.4 1.2-4.7 2.2-5.2 2.2-.6 0-1.8 1.3-2.7 3-2.7 4.4-5.2 5.5-9.8 4-4.9-1.6-6.9-.8-6.9 2.8 0 1.6-.7 3.5-1.5 4.2-1.3 1.1-2 .9-4-1-2.8-2.7-5.5-2.1-5.5 1.3 0 1.3-1.1 3.4-2.4 4.6-1.4 1.3-2.6 3.3-2.8 4.5-.4 2.6-3.6 3.4-4.5 1-.4-1.2 0-2.2 1.5-3.2 4.7-3.1 1.1-9.7-7.9-14.3-2.1-1-4-2.3-4.4-2.9-.3-.5-1.3-1-2.1-1-1 0-1.4 1.2-1.4 4 0 4.7-2.9 8.3-6.3 7.8-1.8-.2-2.3-1.1-2.5-4.8-.4-4.7-1.6-7-3.7-7-1.8 0-9.9 7.9-11.8 11.5-2.3 4.6-4.9 6.4-12.4 9-5 1.7-8.3 3.6-12.3 7.3-3.3 3-6.8 5.3-8.7 5.7-2.2.4-4.6 2.1-7.5 5.5-2.4 2.8-5 5-5.9 5-2.1 0-9.2-3.3-14.9-7-2.5-1.6-6.1-3.6-8-4.5-1.9-.9-4.5-2.5-5.7-3.7l-2.2-2-4 3.3c-4.7 3.7-4.9 4.9-2.1 10.4 1.3 2.5 1.9 5 1.6 6.7-.4 2 .8 5.5 4.4 12.7l5 9.9v21.4l2.8-.6c2.9-.8 4.9-1.1 15.4-2.7 5.8-.9 7-1.5 9.2-4.4 2.9-3.8 6.3-4.8 15.7-4.6 6.6.1 6.7.1 8.8-3.4 2.5-4.3 4.2-4.4 7.4-.6l2.4 2.9 2.9-2.4c2-1.6 4.2-2.3 7.1-2.4 3.4 0 4.6-.5 5.9-2.5.9-1.4 3.2-3.2 5-4 2.2-.9 3.8-2.6 4.8-4.9 2.4-5.7 9.1-6.2 14-.9 2.3 2.4 2.8 2.6 4.9 1.4 1.3-.7 3.9-1.1 5.6-.9 2.7.2 3.7-.3 6.1-3.2 2.8-3.4 3-3.5 10.2-3.5 6.5 0 7.3-.2 7.6-2 .7-4.8 1.2-6.2 3.2-8.3 2.6-2.7 6.6-2.9 8.2-.2.7 1.1 2.3 2 3.6 2 1.8 0 2.7-1 4.2-4.6 1.8-4 2.3-4.5 4.3-3.9 7.1 2.2 10.1 1 10.9-4.5.3-2.3.8-2.6 7.7-3.3 7-.8 7.5-.7 11.2 1.9 3.5 2.4 4.2 2.6 6.6 1.5 2.5-1.2 2.9-1 5.3 1.8 3 3.8 5.9 3.9 9.7.7l2.8-2.5-2-3.7c-2.3-4.3-8.6-9.3-16.2-12.8-2.8-1.3-5.6-3.3-6.2-4.4-.6-1.2-1.1-6.1-1.1-11 0-6.8-.5-10-2-13.6-1.2-2.5-2.4-4.6-2.8-4.6-.4.1-1.8 1-3.1 2zM265 104.5c1.5 1.8.7 3.1-2.9 5-3.2 1.6-4.1 1.2-4.1-2 0-4.1 4.5-6 7-3z" fill="#08FBE7"/>
    <g fill="#792682">
        <path d="M325.3 331.3c-2.7 4.4-5.3 10.1-5.3 11.6 0 1-.7 2.4-1.6 3.2-.8.7-2.4 2.9-3.4 4.9-1 2-4.3 6.2-7.3 9.4-3 3.1-6 7.1-6.7 8.9-2.6 7.1-5 11.6-7.9 15-3 3.4-3.5 3.5-12.1 4.2-7.5.6-9.4 1.1-11.5 3.1-1.4 1.3-4.6 2.9-7.1 3.5-4.9 1.3-7.4 3.9-7.4 7.9 0 3.6-1.7 5.1-4.7 3.9-2.6-1-3.8.4-3.1 3.8.2 1.3 1.3 1.8 3.6 1.8 6.8 0 10.2 6.7 6.8 13.3-2.8 5.5-5.8 14.3-5.3 15.7 1 2.3 8.5 3.8 16.2 3.1 7.7-.7 11.1-2.4 12.6-6.3 1.4-3.6 3.5-5 9.7-6.3 4.5-1 5.7-.9 7.7.4 1.3.9 4.2 1.6 6.3 1.6 4.8 0 5.7 1.1 6.7 7.4.6 4.1.3 5.1-1.5 7.1-1.3 1.4-2 3.3-1.8 4.7.7 5.4 12.4 1.9 22.6-6.7 4.7-4 5.8-4.5 10.1-4.5 3.1 0 5.3.5 6.1 1.5 1.7 2.1 4.6 1.9 7.8-.5 1.5-1.1 5-2.3 7.7-2.6 3.1-.4 5.9-1.5 7.5-2.9 1.4-1.3 4-2.6 5.7-3 4.4-.9 4.8-1.9 2.4-5.9-1.2-1.8-2.1-4.2-2.1-5.2 0-1.1-.9-3.3-2-4.9-1.1-1.7-2-3.8-2-4.9 0-1-1.2-3.2-2.6-4.9-2.3-2.8-2.5-3.6-1.9-8.6.3-3.1.8-11.6 1.1-18.9.5-11.7.3-13.9-1.5-18.8-1.2-2.9-3.1-7.9-4.2-11-1.5-3.9-2-7-1.6-9.9.7-6.9-1.7-8-9.7-4.4-6.7 2.9-9.6 2.3-12.2-2.6-2-3.9-2.1-4-7.7-4.1-3.3-.1-6 .3-6.4.9z"/>
        <path d="M292.6 358.6c-3.9 3.9-4.8 8.2-2.1 10.4 2.2 1.8 4.9.4 7.3-3.9 2.5-4.3 2.8-7.1 1-8.9-1.8-1.8-2.2-1.6-6.2 2.4zM286.4 376.5c-.4.9-.2 2.1.4 2.7 1.5 1.5 4.4.1 4-1.9-.4-2.3-3.6-2.9-4.4-.8z"/>
    </g>
    <path d="M379.1 505.2c-2.7 2.4-4 2.8-9.2 2.8-5.8 0-6.3.2-9.8 3.9-2 2.1-4.7 4.2-6.1 4.6-1.4.4-4.4 2.4-6.7 4.4-11.1 9.6-13.3 10.1-18.5 4.3-1.8-2-4-5.2-4.7-7-1.1-2.6-1.9-3.2-4.5-3.2-2.3 0-3.4.6-4.1 2.2-.6 1.3-2.5 3.1-4.4 4-1.8.9-4.4 2.7-5.7 3.9-2.4 2.3-3.2 6.3-1.5 7.4.5.3 1.5 2.2 2.2 4.3.6 2 3.3 6.3 5.8 9.4 2.5 3.1 5.4 6.8 6.4 8.2 1.6 2.3 2.2 2.5 6.5 2 2.6-.3 6.6-1.2 9-2.1 3.3-1.1 6.2-1.3 12.4-.8 6.8.6 8.5 1.1 11.1 3.5 2.7 2.4 3.1 3.4 3.2 8.1.1 3.9.7 6.4 2.5 9.2 2.5 3.7 2.6 3.7 7.5 3.1 4.2-.5 5.4-.2 7.5 1.6 2.7 2.3 3.4 2.3 12-.9 3-1.1 7.1-2 9-2.1 2 0 4-.4 4.5-.9 1.6-1.3 9.4-2.9 11.8-2.4 1.2.3 4.5 3 7.3 5.9 4.3 4.7 5.5 5.4 8.8 5.4 2 0 4.5.4 5.4.9.9.4 3.1 1.1 4.8 1.4 2.8.5 3.4.1 6.7-4.1 2-2.6 7-8.2 11.1-12.5 9.4-9.6 12.6-15.6 13.1-24.4.3-5.5 1-7.3 3.9-11.7 4.7-6.7 4.9-11.5.6-15.4-1.6-1.5-4.3-4.8-5.9-7.3-2.8-4.5-3-4.6-9.1-5.2-12.3-1.3-12.7-1.2-18 4.5-4.4 4.8-5 5.1-9.4 5-2.6 0-6.1-.6-7.7-1.2-2.5-1.1-3.4-.9-8.4 1.9-7.5 4.2-15.1 5.9-17.3 3.7-1.5-1.4-1.4-1.9.1-5.1 2.4-4.9 2.1-6.7-1.1-9.9-2.7-2.5-3.4-2.7-10.5-2.4-6.6.3-7.9.6-10.6 3z" fill="#5308FF"/>
    <path d="M527 302.2c-2.5.4-12.6.6-22.5.4-16.5-.3-18.3-.2-21.9 1.6-3.4 1.7-5 1.9-10.5 1.3-9.9-1-11.1-.9-17.6 2.4-3.3 1.7-6.7 3.1-7.5 3.1-.9 0-2.6.7-3.8 1.6-1.8 1.3-2.2 2.5-2.2 7.3 0 3.9-.7 7.5-2.2 10.7-2.8 6.2-3.9 13.6-4.5 30.1-.4 11.8-.2 13.6 1.6 17.2 2.9 5.5 2.8 13.9 0 17.5-2.2 2.8-5.9 12-5.9 14.7 0 .9 2.4 4.1 5.2 7 5.1 5.2 5.4 5.4 10.8 5.4 7.9 0 10.6-1 12-4.5.7-1.6 2.2-3.3 3.4-3.6 1.1-.4 7.7-.7 14.6-.6 12.3.2 12.6.1 17.3-2.8 4.3-2.8 4.7-3.3 4.7-7.1 0-7.2 3.8-12.1 11.1-14.2 4-1.2 4.5-1.6 5.1-5.2 1.9-10.7 4.1-19.3 5.6-22.2.7-1.2 1.2-3.4 1.2-4.9 0-1.5.5-4.1 1-5.8.6-1.7 2.1-6.5 3.4-10.7 1.4-4.2 4.3-11.2 6.6-15.7 3.8-7.3 4.1-8.5 3.8-14.7-.4-8.3-1.8-9.7-8.8-8.3z" fill="#CC597D"/>
    <g fill="#9F2560">
        <path d="M287.5 98.9c-4.4.5-5 .9-5.3 3.1-.8 5.5-3.8 6.7-10.9 4.5-2-.6-2.5-.1-4.3 3.9-1.4 3.3-2.5 4.6-4 4.6-2.5 0-2.5 1.6.1 7.7 2 4.4 3.1 8.4 4.6 15.6.3 1.6 0 4.8-.7 7-1.6 5.4-5.2 14.9-6.1 16.2-.7 1.1-2.5 6.8-3.9 12.5-.5 1.9-1.4 5.3-2 7.5-.7 2.2-1.5 6.2-2 9-.5 2.7-1.3 7-1.9 9.4-1.1 4.2-1.1 4.5 2.4 9 2.5 3.2 3.4 5.2 3 6.6-.3 1.1-.9 4-1.2 6.4l-.6 4.4 5.3-.7c2.9-.4 8.1-2.2 11.6-4 5.7-3 7-3.3 15.5-3.5 5.3 0 11.8-.8 14.9-1.7 3.8-1.1 7.3-1.4 11.6-1l6.1.6 1.3-3.2c.6-1.8 2.4-6.2 4-9.8 1.6-3.6 3.4-7.9 4-9.7.7-1.8 1.9-3.8 2.7-4.5.8-.7 2.5-3.5 3.8-6.3 1.2-2.7 3.4-6.1 4.9-7.4 2.3-2.2 2.6-3.2 2.6-8.8 0-3.6.6-7.4 1.3-8.6.7-1.4 1.4-8.5 1.8-18.7.4-9.1 1-17.8 1.4-19.3.6-2.4.4-2.9-1.3-3.4-1.2-.3-2.8-1.6-3.7-2.9-1.1-1.7-2.5-2.4-4.8-2.4-5 0-7.7-1.1-7.7-3 0-1-.8-2.8-1.9-4.1l-1.8-2.3-3.2 2.7c-4.2 3.5-7 3.4-10.1-.4-2.4-2.8-2.8-3-5.3-1.8-2.3 1.1-3.1.9-6.5-1.4-3.9-2.7-4.8-2.9-13.7-1.8zM259.2 104.2c-1.3 1.3-1.6 5-.6 6.1.8.7 6-1.8 6.9-3.3.9-1.4-1.3-4-3.4-4-.9 0-2.2.5-2.9 1.2z"/>
    </g>
    <path d="M459.6 415.6c-.9.8-1.6 1.9-1.6 2.4 0 3.4-11.1 6.2-16.9 4.2-2.7-.9-3.2-.7-6.1 2.5-2.5 2.7-3.7 3.3-5.4 2.8-5.6-1.8-7.1-1.7-9.6 1-1.5 1.6-5.3 3.4-10.6 5-4.5 1.4-8.9 3.4-9.9 4.5-2.3 2.5-3.6 2.5-6.5 0-1.3-1.1-3.5-2.3-4.9-2.6-1.4-.3-3.6-1-4.9-1.5-2.9-1.2-9.8.6-12.9 3.4-2.4 2.1-2.3 5.1.2 11.7.7 1.9 1.6 4.7 1.9 6.2.4 1.5 2.1 4.4 3.8 6.4 3.7 4.2 4.6 8.4 5.6 28.4l.7 12.5 7.4-.3c6.9-.4 7.5-.2 10.2 2.4 3.3 3.2 3.6 5 1.2 9.9-1.5 3.2-1.6 3.7-.1 5.1 2.2 2.2 9.8.5 17.3-3.7 5-2.8 5.9-3 8.4-1.9 1.6.6 5.1 1.2 7.7 1.2 4.4.1 4.9-.2 9.6-5.2l4.8-5.3 9.9.7 9.8.7 2.1-3.3c7.4-11.5 6.3-10.8 19.7-13.9 2.8-.6 7.5-2.2 10.5-3.4 3-1.3 6.7-2.8 8.3-3.4 2.3-.9 2.7-1.6 2.7-4.9 0-2 .7-4.8 1.6-6 2.2-3.2 1.2-4.8-3.3-5.7-2.1-.4-6.5-2.2-9.9-4.1-3.3-1.9-6.9-3.4-7.8-3.4-2.7 0-9.4-3.8-10.6-6-.6-1.1-2.6-2.2-4.6-2.6-5.4-1-6.4-3.4-6.1-15 .2-8.8-.1-10.3-2-13.5-1.3-2-2.3-4.4-2.3-5.3 0-2.1-5.3-2.2-7.4 0z" fill="#20F89A"/>
    <path d="M448.5 627c-2.7.5-7.1.9-9.7.9-4.2.1-5.3.6-8.9 4.2-5.4 5.4-15.3 8.5-19.6 6.2-4.1-2.2-13.1-1.1-18.9 2.1-2.9 1.6-6.2 2.6-8.8 2.6-3.6 0-4.8.6-8 3.9-2.2 2.2-5.2 4.5-6.7 5.2-1.6.6-2.9 1.5-2.9 2 0 .4-2.5 3.3-5.5 6.4-6 6-6.5 7.9-3.5 11.8 2.8 3.5 2.5 4.5-1.5 6.1-1.9.8-3.8 2.2-4.1 3.1-.4.9.3 4.5 1.5 8.1 1.3 3.9 2.1 9 2.1 13.2 0 6.6.6 8.2 4.4 13.6 1 1.4 2.1 4.6 2.4 7.1.5 4.5.5 4.5 4.3 4.5 2.1 0 6.1-.9 8.9-2 6-2.4 10-2.5 15.5-.5 5.9 2.1 11.7 1.9 14.6-.6 1.7-1.5 3.4-1.9 5.9-1.6 6 .7 9.9-.9 10.8-4.6.6-2.2 1.9-3.8 4.5-5.2 2.4-1.3 4-2.9 4.3-4.5 1.7-7.9 4.8-10 12.2-8.1 2.6.7 5.7 1.5 6.9 1.8 1.4.3 3.2-.3 4.9-1.6 3.4-2.7 3.8-2.6 6.6.4 1.3 1.3 4.2 3.1 6.6 3.9 3.9 1.4 4.5 1.4 7.5-.3 1.7-1 4.9-2.2 7-2.5 2.1-.4 4-1.3 4.3-2 .8-2-4-11.8-7.1-14.6-1.5-1.4-3.8-4.2-5.1-6.2-1.5-2.3-4.3-4.7-7.4-6.3-5.7-2.9-5.7-3-6.5-16.5-.6-12.2-.6-12.1.1-21.2.6-7.7.6-7.8-2.1-8.8-1.4-.5-2.9-.9-3.3-.9-.4.1-2.9.5-5.7.9z" fill="#458E7B"/>
    <path d="M387.1 294.4c-3.3 1.8-5 5.3-5.1 10.3 0 3.2-.8 5-3.6 8.4-3.5 4.2-3.6 4.4-2.9 10.6.6 5.6.4 6.4-1.6 8-1.2 1-3.1 2.7-4.2 3.7-1.1 1.1-3.4 2.2-5.1 2.5-2.7.6-3.1 1.1-3.4 4.4-.2 2.1.6 6.2 1.7 9.2 1.2 3 3 8 4.2 10.9 1.8 4.9 2 7.1 1.5 18.8-.3 7.3-.8 15.8-1.1 18.9-.6 5-.4 5.8 1.9 8.6 1.4 1.7 2.6 3.9 2.6 4.9 0 1.1.9 3.2 2 4.9 1.1 1.6 2 3.8 2 4.8s1 3.6 2.3 5.7c2.1 3.8 4.3 5.2 9.8 6.4 1.4.3 3.6 1.5 4.9 2.6 2.9 2.5 4.2 2.5 6.5 0 1-1.1 5.4-3.1 9.9-4.5 5.3-1.6 9.1-3.4 10.6-5 2.5-2.7 4-2.8 9.6-1 1.6.5 2.9-.1 5.3-2.7 1.7-1.8 3.1-3.8 3.1-4.4 0-.6-1.8-2.7-4-4.7-2.2-1.9-4-4.4-4-5.4 0-2.9 3.6-12 5.9-14.9 2.8-3.6 2.9-12 0-17.5-1.8-3.6-2-5.4-1.6-17.2.6-16.5 1.7-23.9 4.5-30.1 1.4-3.2 2.2-6.8 2.2-10.6 0-4.9-.3-5.8-2.2-6.7-1.3-.6-3.8-4.1-5.8-8l-3.5-6.9-6-1.1c-3.3-.7-8.9-1.8-12.5-2.7-8-1.9-20.6-2-23.9-.2z" fill="#45F4A7"/>
    <path d="M251.1 113.2c-2.1 2.1-2.6 3.5-3.3 8.3-.3 1.8-1.1 2-7.6 2-7.2 0-7.4.1-10.2 3.5-2.4 2.9-3.4 3.4-6.1 3.2-1.7-.2-4.3.2-5.6.9-2.1 1.2-2.6 1-4.9-1.4-4.9-5.3-11.6-4.8-14 .9-1 2.3-2.6 4-4.8 4.9-1.8.8-4.1 2.6-5 4-1.3 2-2.5 2.5-5.9 2.5-8.2.1-11.4 5.3-12 19.5-.2 3.6.1 4.2 3.3 5.7 5.4 2.7 6 4.2 6 14 0 8.2-.2 9.1-2.5 11.2-1.5 1.4-3.5 5.6-5.3 11.2-2.6 8.5-2.7 9.4-2 21.9 1.2 23.7 1.8 25 9.5 21.2 7.4-3.8 12.5-4.3 17.3-1.8 5.1 2.6 5.4 2.6 8.4-.4 1.4-1.4 3.5-2.5 4.8-2.5 1.5-.1 3.4-1.5 5.6-4.4 2.3-3.1 4.6-4.8 8-6 7.5-2.7 7.7-2.9 8-8.2.2-4.2-.2-5.7-2.7-9.4-3.4-5-3.8-8.7-1.6-12.9 2.5-4.9 7.1-5.4 12.7-1.6 2.1 1.4 4.9 3 6.3 3.5 2.2.8 2.5.7 3.1-1.8.3-1.5 1-3.7 1.5-5 .5-1.3.9-3.8.9-5.7 0-1.9.4-4.4.9-5.7.5-1.3 1.4-4.1 1.9-6.3 2.2-8.3 4.5-16 5.1-17 .9-1.3 4.5-11 6.1-16.2.7-2.2 1-5.4.7-7-1.5-7.2-2-9.2-4.4-15.3-1.3-3.6-3-7.6-3.7-9-1.6-3.4-5.8-3.8-8.5-.8z" fill="#1ABF54"/>
    <path d="M301 216.5c-2.5.8-8.7 1.6-13.8 1.6-8.5.2-10 .5-15.6 3.4-6.5 3.5-13.6 4.9-29.1 6-4.9.4-9.9 1-11 1.5-1.1.5-4.1 1.6-6.7 2.5-3 1.1-5.8 3.1-7.8 5.6l-3.1 4 1.6 5.2c1.8 5.4 4.5 8.7 7.4 8.7 3.1 0 13.5 11.2 15.5 16.5.9 2.8 2.2 6.2 2.8 7.8 1.2 3.2 3.8 5.1 13.3 10 6.3 3.3 8 3.7 17 4.1 5.5.3 11.6 1 13.5 1.6 7.2 2.1 8.8 1.5 11.4-4.4 2.2-4.9 2.9-5.6 10.9-10 4.7-2.5 9.7-4.6 11.2-4.6s6 1.7 9.9 3.9c4.8 2.6 8.9 4 12.6 4.4 3 .3 8.3 1.5 11.7 2.6 3.3 1.1 7.1 1.7 8.3 1.4 2-.5 2.1-.9 1.7-13.2-.6-16.7-2.8-28.4-6.6-35.6-1.2-2.1-2.1-4.5-2.1-5.2 0-1.9-3.8-3.9-11.5-5.9-6.7-1.7-9.8-3.3-19.4-9.7-5.3-3.5-15.1-4.5-22.1-2.2z" fill="#D1C205"/>
    <path d="M146.1 336.6c-1.9 1.3-3.7 2.8-4.1 3.4-.7 1.1-9.4 4.7-15 6-5.1 1.3-6 3.2-6 13.2 0 9.4-1 12.7-5 16.3-3.5 3.1-4.7 7.3-4.4 14.8.2 5.9.6 7.1 2.8 8.8 2.3 1.8 2.6 2.8 2.6 7.9 0 5.3.3 6.1 2.6 7.6 3.4 2.3 11.6 2.3 17.3.1 2.4-1 5.7-1.7 7.5-1.7 9.2.4 11.7.1 18.1-2.3 5-1.9 8.9-2.7 13.6-2.7 6.4 0 6.8.1 9.3 3.5 1.5 1.9 3.5 3.5 4.5 3.5 2.7 0 6.8-3.6 7.6-6.7 1.4-5.9 3.3-6.4 11.1-3.2 6.4 2.7 9.7 2.1 11.4-2.1.7-1.6 2-3.2 3-3.5 1-.3 3.2-1.9 4.7-3.6 2.5-2.5 3.5-2.8 6.2-2.3 1.8.4 4 1.8 4.9 3.2 2.4 3.5 6 7.2 6.9 7.2.4 0 1.9-1.8 3.3-4 2.5-4.2 7.4-7.9 12.6-9.7 1.7-.6 4.3-2.3 5.9-3.7 2.1-1.9 3.8-2.6 7-2.6 4.6 0 6.9-1.7 6.3-4.7-.2-1-1.3-1.9-2.5-2.1-1.2-.2-3.6-2.1-5.4-4.3-1.7-2.1-4.3-4.2-5.7-4.6-1.5-.3-5.1-2-8-3.6-5.1-2.8-5.7-2.9-12.5-2.2-9.5 1-11.2 1-24.7-.4-24.7-2.4-38.4-5.7-46.9-11-2.5-1.5-7.2-4.3-10.4-6-3.1-1.8-6.1-4-6.6-4.9-.5-1-2.6-2.7-4.8-3.9l-3.8-2.1-3.4 2.4z" fill="#A6595B"/>
    <path d="M244 545.6c0 4-4.9 12.4-10.2 17.5-3.1 2.9-11.4 5.9-16.6 5.9-1.8 0-4.2 1-5.6 2.2-2.4 2.2-2.5 2.9-2.7 13.4-.2 10.8-.2 11.2 2.6 14.8 1.5 2 4.9 4.9 7.4 6.3 6.3 3.6 14.9 12.1 15.6 15.4.4 1.6 1.5 3.8 2.5 5.1 1 1.3 2.2 3.9 2.8 5.8 2.7 9.1 5.6 15.5 9.5 20.9 2.3 3.3 4.7 6 5.4 6 .6.1 2.2 1.5 3.5 3.2 1.3 1.7 3.4 4.2 4.7 5.6 1.3 1.4 3.1 3.9 4.1 5.6 1.8 3 10.5 10.7 12.1 10.7.4 0 1.5-1 2.3-2.2 1.2-1.7 1.6-4.8 1.6-12.6 0-10.7-1.4-15.7-6.1-20.7-2.7-3-3.5-7.8-1.5-9.4 3-2.5 6.4-.5 9.6 5.9 1.7 3.3 3.4 6 3.8 6 .4 0 1.6.7 2.6 1.5 2 1.5 3 5.8 4.4 18 .6 5.1 1.1 6.2 3.3 7.2 3.4 1.7 8.8.1 12.8-3.6 3.7-3.5 4-6.9 1-11.8-2.8-4.5-2.2-11.2 1.4-17 1.5-2.4 2.7-5.2 2.7-6.3 0-2.7-6.4-22-9.1-27.3-1.2-2.3-4.9-7.1-8.3-10.7-3.4-3.6-7.3-7.9-8.7-9.6-1.4-1.8-3.9-3.9-5.5-4.7-4.5-2.4-12-10.8-13.4-15-.7-2.1-1.9-4.1-2.7-4.4-.8-.3-2.8-3.2-4.3-6.4-2.7-5.7-11.3-15.4-15.7-17.7-4-2.2-5.3-1.5-5.3 2.4z" fill="#F5BBA8"/>
    <path d="M27.9 623.2c-.9 2.2-2.5 3.6-4.6 4.3-1.8.6-3.5 1.3-3.8 1.7-.6.6 4.6 11.9 11.3 24.3 2.1 3.8 5.5 8.8 7.6 11 2.1 2.2 4.8 6.1 6.2 8.7 1.3 2.6 2.8 4.9 3.4 5.3.6.4 2.4 3.3 4 6.5 3.5 6.9 12.3 15.9 19.8 20.2 3 1.7 5.6 3.7 5.9 4.4.9 2.4 4.3 1.5 6.1-1.6 3.3-5.8 12.1-6.7 17.7-1.9 3.2 2.9 3.8 3 8.5 2.4 5.7-.8 13.1-4.3 17.5-8.4 3-2.9 9.9-5.1 15.4-5.1 7.7 0 9.1-2.5 9.5-16.5.1-4.4.7-9 1.4-10.2 1.3-2.3 1.6-16.1.4-17.9-.4-.6-2.3-1.4-4.2-1.6-1.9-.3-6.2-1.6-9.5-2.8-3.3-1.2-8.2-2.8-11-3.5-4.9-1.3-5.1-1.3-8 1.3-3.3 3-9.1 7.2-9.9 7.2-.3 0-1.9-2.6-3.5-5.8-4.3-8.5-10.7-11.2-26.9-11.5-6.8-.2-9.5-.6-11.7-2.1-13.2-8.7-21.2-11.5-33.1-11.6-7 0-7 0-8.5 3.2z" fill="#675977"/>
    <path d="M532.8 205.7c-1.2.9-2.8 2.2-3.4 3-1.8 2.1-22.4 6.7-26 5.7-2.1-.6-8.8.9-11.2 2.5-.8.4-1.8 2.7-2.3 5.1-.5 2.4-2.2 5.9-3.8 7.9-4.7 6-5.3 7.8-4.7 13.9.4 3.2.3 6.2-.1 6.9-1.5 2.1-10.6 5.4-13.2 4.8-3.8-1-8 1.4-10.2 5.7-1.2 2.4-3.2 4.5-5 5.2-4 1.7-8.3 10.4-7.5 15 .8 4.4-1 6.4-6.8 7.5-9.5 1.8-11 6.7-5.2 17.3 4.1 7.3 6.4 8.8 9.8 6.4 1.2-.9 2.9-1.6 3.8-1.6.8 0 4.2-1.4 7.5-3.1 6.5-3.3 7.7-3.4 17.6-2.4 5.5.6 7.1.4 10.5-1.3 3.6-1.8 5.4-1.9 21.9-1.6 9.9.3 20.1 0 22.8-.4 4-.8 5.1-.7 7.1.9 3.1 2.4 5.2 1.6 6.1-2.4.9-3.6.9-21.3 0-39.2-.5-9.7-.3-13 1.1-17.5 1.7-5.6 4.8-10.9 7.1-12.3 1.7-1 4.3-6.1 4.3-8.2 0-1.6-.8-2.9-6.8-10.5-1.3-1.6-4.3-4.3-6.7-5.9-4.1-2.7-4.5-2.8-6.7-1.4z" fill="#7D6859"/>
    <path d="M644.3 34.2c-1.3.6-2.3 1.8-2.3 2.7 0 .8-2 4.4-4.4 8-4.6 7.1-5.4 8.9-6.6 16.6-1 6-2.4 12-3.8 16-4.2 12.1-5.7 19.1-7 32.5-.8 8.2-2.3 11.8-7.1 16.7-1.7 1.8-3.3 4.5-3.6 6-.3 1.5-1.1 4.8-1.7 7.2-1 3.9-.9 4.5.7 5.7 2.8 2.1 6 1.7 9.3-1.1 3.4-2.9 5-3.1 7.8-1 2.5 1.9 9.8 1.9 11.4 0 .8-.9 3-1.5 5.8-1.5 2.7 0 5.7-.8 7.7-2 4.6-2.9 22.3-3.4 25.2-.8 2.8 2.5 5.8 2.2 7.7-.7 2.1-3.1 4.6-3.2 8.3-.1 1.6 1.4 5.2 2.9 8.1 3.4 5 .9 5.4.8 7.2-1.6 1.1-1.3 2-3.5 2-4.9 0-1.3 1.2-4.7 2.6-7.5 2.2-4.4 2.5-5.8 1.9-10.7-.8-7.1-2.3-9.8-7.1-13.1-2.1-1.4-4.9-4.4-6.2-6.5-2.3-4.1-2.5-8.6-.7-21.5.9-5.9-.9-7.5-10.5-10-3.9-1-7.9-2.5-8.8-3.3-1-.9-3-1.9-4.6-2.3-1.7-.4-5.9-2.5-9.5-4.6-3.6-2.1-8.9-4.9-11.8-6.3-2.8-1.3-5.4-2.8-5.7-3.3-.3-.5 1-2.4 2.9-4.2 4-3.9 4.2-5 1.7-7.3-2.1-1.9-5.6-2.1-8.9-.5z" fill="#F9F2E4"/>
    <path d="M592 313.5c-2.5 1.3-6.2 2.4-8.3 2.5-4 0-9.4 4-8.2 6.1.9 1.3 2.4 10.3 3.5 19.9.4 4.1 1.1 8.7 1.5 10.1.4 1.6 0 4.5-1 7.5-5.5 15.3-4.8 30.3 1.9 43.2.9 1.7 1.6 4.7 1.6 6.7 0 2.8.4 3.5 1.9 3.5 1 0 2.5-.7 3.2-1.6 1.1-1.3 2.5-1.5 7.9-1 6.1.6 6.9.5 10.6-2 2.1-1.5 4.4-3.4 5.1-4.4 2.8-3.9 8.7-9.1 11.2-9.6 1.4-.4 3.9-1.3 5.5-2.1s6.1-1.9 10-2.5c3.9-.5 8.7-1.6 10.6-2.5 1.9-.8 7.8-2.1 13-2.9 5.2-.8 10.6-2.2 12-3.1 2.3-1.6 5.7-2 18.8-2.2 2.8-.1 3.2-.4 3.2-3 0-1.6-.6-3.3-1.3-3.9-.7-.6-5.5-1.6-10.7-2.3-5.2-.6-10.1-1.6-10.7-2.2-2.5-1.9-1.3-7.5 4.1-20.1 1-2.1 1.6-3.9 1.4-4-.2-.1-1.6-.7-3.1-1.4-1.6-.7-3.2-2.5-3.8-4.2-1.8-5.1-11-6.5-18.1-2.9-7.1 3.6-14.2 1.1-17.9-6.4-1.2-2.3-3.3-5.4-4.7-6.9l-2.5-2.7-2.8 1.9c-4.2 3.1-7.1 2.5-12.5-2.4-9.1-8.1-13.7-9.2-21.4-5.1z" fill="#ECE0EE"/>
    <path d="M525.3 130.9c-5.3 10.8-6.8 13-10 14.9-6 3.4-15.5 12.8-15.1 14.8.4 2.4 8.9 5.4 15.3 5.4 4.2 0 6 .7 11.5 4.3 8.8 5.8 11.2 10 10.6 18.7-.3 3.6-.8 8.6-1.1 11.2-.7 4.6-.6 4.7 3.2 7.1 3.8 2.4 6.4 5.2 10.7 11.2 1 1.5 3.1 3.1 4.6 3.7 1.6.5 4 2.7 5.5 4.8 1.5 2.2 3.5 4.1 4.4 4.4 4.9 1.3 13.8 1.6 18.2.6 4.3-1.1 5.1-1.7 6.9-5.3 3.2-6.5 7.3-13.1 9.7-15.6 5.2-5.5 6.6-20.1 3.3-33.6-1.9-7.4-2.4-26.2-.9-30.8 1.5-4.7.7-5.6-5.6-6.5-4-.6-5.1-1.2-6.5-3.7-1.5-2.8-2.1-3-7.6-3.2-10-.2-16.8-1.7-19.2-4.1-1.2-1.2-3.4-2.4-4.9-2.8-1.6-.4-4.8-1.5-7.3-2.4-4.6-1.9-12.5-4.3-17-5.3-2.3-.6-2.9.2-8.7 12.2z" fill="#7AEE04"/>
    <path d="M83.6 188.6c-3 2.9-2 7.3 2.5 11.4 5 4.5 4.8 7-.5 7-3.8 0-7.6 3.6-7.6 7.2 0 3-1.8 5.6-4.9 7.3-3 1.5-4.1 3.9-6.7 13.4-1.6 5.9-.8 8.1 3 8.1 1.2.1 3.9 2.1 6.5 5.1 3.9 4.5 4.3 5.3 3.3 7.5-.9 1.8-1.9 2.4-4.3 2.4-2.3 0-4.2 1-7 3.9-4.2 4.1-4.7 6.2-2.4 10.1.8 1.4 1.4 4.2 1.5 6.2 0 4.4 2.8 7.8 6.4 7.8 1.4 0 2.8.5 3.1 1 1 1.6 7 3.9 17 6.7 9.2 2.5 16.1 2.7 39.8.9 6.7-.5 15.7-2.5 15.7-3.5 0-.3-1.6-2.8-3.5-5.5l-3.5-5v-12.4c0-11.9.1-12.7 2.8-17.1 1.6-2.5 3.6-7.2 4.5-10.4.9-3.1 2.4-8.3 3.4-11.5.9-3.1 2.4-6.8 3.5-8.1 2.3-3.1 2.4-7.7.1-8.4-1-.3-3.8-1.3-6.3-2.3-6.7-2.5-10.6-3.3-19.6-4.3-9.1-1.1-18.9-5.3-23.4-10.1-3.4-3.6-8.2-6-12.2-6-1.8 0-4.6-.7-6.2-1.5-3.5-1.8-3.1-1.8-5 .1z" fill="#718C8C"/>
    <path d="M408.2 97.7l-2 2.8-2.6-2.4c-3.9-3.7-7-2.3-10.6 4.9-1.7 3.3-3.4 6-3.8 6-.4 0-2.8-1.8-5.2-4-5.9-5.3-7.3-5.2-10.3.7-1.6 3.1-1.8 3.1-6.9 2.6-4.7-.5-5.6-.2-8.2 2.1-1.5 1.5-4.1 3-5.7 3.3-1.6.3-3.3 1.1-3.7 1.7-2 3.2-3.1 11.6-3.2 24.6 0 10.6-.5 15.2-1.5 17-.8 1.4-1.4 5.1-1.5 8.2 0 6.9.3 7 10 3.4 3.6-1.4 9.6-3.6 13.3-5 3.7-1.4 8.1-3.5 9.8-4.7 2.5-1.8 3.8-2 8.3-1.5 3 .4 6.2 1.4 7.2 2.1 2.8 2.1 5.2 1.8 8.6-1 1.6-1.4 3.9-2.5 5-2.5 3.4 0 12.8 5.8 18.4 11.1 6.9 6.8 10.5 7.3 16.7 2.6 2.5-1.9 6.2-3.7 8.4-4.1 2.8-.5 4.8-1.8 7.8-5.2 3.4-3.8 4.8-4.6 9.4-5.3 4.2-.7 6.1-1.6 8.6-4.2 1.8-1.9 4.4-4.4 5.9-5.6 2.2-1.9 2.5-2.5 1.5-4.5-.6-1.3-3.8-3.9-7.2-5.8-8.5-4.9-11.4-7.6-12.2-11.2-.8-3.6-4-6.7-7-6.8-4.7-.1-9.6-2.2-10.5-4.5-1.2-3.3-4.5-5.2-11-6.4-6.2-1.1-17-5.6-17-7 0-1.6-3-4.1-5-4.1-1 0-2.7 1.2-3.8 2.7z" fill="#EA16E6"/>
    <path d="M78 290.3c0 .7-2 3.4-4.5 6-4.1 4.3-4.8 4.7-7.8 4.2-4.7-.9-6.6 1.4-4.8 5.8 3.6 8.9 3.7 10.6 2.6 24.3-.7 9-.6 9.1 1.9 11.1 2.8 2.2 5.6 9.1 5.6 13.8 0 3.8 2.3 8.1 5.5 10.7 1.3 1 3 3.8 3.6 6 .7 2.9 3 6.1 7.5 10.7 3.5 3.6 7.1 7.6 7.9 8.8 1.1 1.5 2.6 2.3 4.7 2.3 1.6 0 4.2.7 5.8 1.6 1.5 1 3.5 1.4 4.5 1 1.5-.5 1.7-1.5 1.2-6.8-.6-6.9.6-11.1 4.3-14.3 4-3.6 5-6.9 5-16.3 0-10 .9-11.9 6-13.2 5.7-1.4 14.5-4.9 14.8-6 .2-.5 1.9-1.9 3.8-3 1.9-1.2 3.4-2.9 3.4-3.7 0-3.5 8.3-14 17-21.6 1.3-1.1 2-2.9 2-5.1 0-1.8.7-5 1.5-6.9.8-2 1.5-3.8 1.5-4 0-.3-5-1.2-11.1-2.2-9-1.4-11.9-1.5-15.9-.5-5.3 1.3-10.2 1.7-28.7 2.6-10.7.5-13.3.3-21-1.7-4.8-1.2-10-2.8-11.5-3.6-3.4-1.6-4.8-1.7-4.8 0z" fill="#93AAF8"/>
    <path d="M160.8 499.7c-3.6 2-5.4 3.9-7.7 8.3-3.1 5.8-3.9 10.4-2.1 11.5 1.9 1.2 1 3.9-2.5 7.1-2.2 2-3.5 4.1-3.5 5.7 0 1.4-.6 3.2-1.3 3.9-2.1 2.2-3.7 9.1-3.7 16.2 0 5.5.4 6.9 2.1 8.4 1.1.9 3 2.5 4.1 3.4 1.2 1 2.6 1.8 3.1 1.8 1.5 0 11.5 10.9 13.4 14.5 2.1 4 5.3 7.5 7.1 7.5.8 0 2.7.8 4.2 1.7 2.5 1.5 3.5 1.5 8.4.3 4.4-1 6.1-1 8.5 0 1.7.6 5.6 1.5 8.8 2 3.2.4 6.5.9 7.3 1.1 1.2.3 1.5-1.3 1.8-9.8.3-9.6.4-10.3 2.9-12.3 1.4-1.1 3.9-2 5.5-2 5.2 0 13.5-3 16.6-5.9 1.6-1.6 4.6-5.3 6.6-8.3 4-6.2 4.7-11 2.1-17.2-1.9-4.5-4.6-6.2-11.5-7.1-3-.4-7.5-1.8-10-3.1s-5-2.4-5.7-2.4c-1.6 0-2.2-2.1-1.1-4.9 1.1-3-.3-4.8-4.5-5.7-4-.8-5.4-1.9-8.3-6.6-2.1-3.3-2.7-3.6-5.7-3.1-2.7.4-3.9 0-5.5-1.8-4.7-5-7.2-5.9-16.2-5.9-7.3 0-9.2.4-13.2 2.7z" fill="#9DF97C"/>
    <path d="M275 639.5c-1.4 1.7-.5 6.8 1.6 8.6.9.7 2.6 3.4 4 6.1 2.1 4.1 2.4 6.1 2.4 15 0 7.8-.4 10.9-1.6 12.6-.8 1.2-1.9 2.2-2.3 2.2-1.4 0-10.4-7.8-11.6-10-.6-1.2-2.3-3.6-3.8-5.3-1.5-1.8-4-4.7-5.5-6.6-4-4.7-5.2-3.5-5.2 5.2 0 5.9-.6 8.8-3.4 15.7-5.1 12.7-6.8 18.7-7.7 26.5-.4 3.8-1.1 8.7-1.5 10.9-.4 2.2-.1 5.4.6 7.6 1 3.2 2.2 4.2 7.1 6.5 6.7 3.2 12.1 3.5 21.5 1.2 3.3-.8 8.8-1.8 12.3-2.2 3.8-.4 8.9-1.8 12.6-3.6 3.4-1.6 6.6-2.9 7.2-2.9 1.5 0 11.1-5.1 17.3-9.1 3.2-2.2 7.6-6.4 10.5-10.3 2.8-3.7 6.2-8.3 7.7-10.2 1.9-2.5 2.6-4.4 2.2-5.9-.7-2.9 2.3-11.9 4.7-14.1 2.3-2.1 2.5-7.8.4-11.4-.8-1.4-1.4-3.5-1.5-4.6 0-1.2-1.4-5.2-3.2-8.9-2.7-5.8-3.7-7-7.2-8.5-2.3-1-6.7-2-9.9-2.3l-5.8-.6-2.6 4.2c-3.6 5.8-4.2 12.5-1.4 17 3 4.9 2.7 8.3-1 11.8-4 3.7-9.4 5.3-12.8 3.6-2.2-1-2.7-2.1-3.3-7.2-1.4-12.2-2.4-16.5-4.4-18-1-.8-2.2-1.5-2.6-1.5-.4 0-2.1-2.6-3.7-5.9-3.6-7-7.2-9.1-10.1-5.6z" fill="#EC4D15"/>
    <path d="M552.6 225c-.3 1.7-1.6 4.1-3 5.4-7.8 7.9-9.9 15.1-9.1 31.1.9 18 .9 35.6 0 39.3-.9 3.9.8 5.7 6.5 6.7 1.9.4 5.5 1.9 8 3.5s6.8 3.6 9.7 4.5c2.8.9 5.9 2.5 6.9 3.6 2.2 2.5 2.8 2.4 5.8-.6 1.7-1.7 3.6-2.5 6.1-2.5 2 0 5.8-1.1 8.5-2.5 8-4.1 12.2-3.1 21.4 5.1 5.3 4.9 8.6 5.5 12.5 2.5 2-1.5 2.2-2.1 1.2-3.9-.6-1.1-1.1-3-1.1-4.2 0-1.1-1.1-3.1-2.5-4.4-1.4-1.3-2.5-3.3-2.5-4.5 0-2 2.3-7.1 5.3-11.4 1-1.6.9-2.1-1-3.4-2.6-1.8-2.9-4.9-.8-7.7 2.3-3.1 1.8-5.3-2.5-10.7-2.2-2.8-4-6.1-4-7.2 0-1.2-.7-3.3-1.5-4.7-.8-1.4-2.2-4.1-3.1-6-2.1-4.6-2.9-5-9.2-5-4.7 0-5.7-.4-8.3-3.3-1.7-1.8-3.2-4.8-3.6-6.9-1-6.6-2.2-7.4-8.5-5.9-7 1.5-18.4.5-20.7-1.9-.9-.9-2.8-3.1-4.3-4.9-3.3-3.9-5.4-4-6.2-.1z" fill="#72FBB6"/>
    <path d="M441.5.7c-1.1.2-4 2.6-6.5 5.3-2.6 2.8-5.8 5.1-7.5 5.5-5.8 1.3-8.5 2.7-11 6.1-1.4 1.9-3.1 3.4-3.7 3.4-3.6 0-14.8 11.5-14.8 15.2 0 .5 1 2.3 2.3 3.9 1.2 1.6 3.2 4.2 4.5 5.9 1.5 1.9 3.3 3 4.8 3 4.8 0 8.9 2.5 10.8 6.7.9 2.2 3.1 4.7 4.7 5.7 2.9 1.7 3.1 2.1 3.3 6.6.1 3.2 2.8 3.7 5.3 1.1 2.9-3.1 8.3-6.9 13.2-9.1 2.5-1.2 6.4-3.9 8.8-6 5.7-5.3 9.3-5.4 13.6-.3 8.6 10 14.8 14.1 21.5 14.3 3 0 10.2-5.8 10.2-8.2 0-3 2.9-7.9 8.2-13.7 2.7-2.9 5.5-6.6 6.3-8.1.8-1.5 2.5-3.5 3.9-4.4 1.6-1 2.6-2.6 2.6-4 0-1.3.9-5.2 2-8.7 1.7-5.1 1.9-7.7 1.4-13.6l-.7-7.3h-17.1c-13.4.1-17.5.4-19 1.5-2.6 1.9-5 1.9-6.7-.1-1-1.2-2.6-1.4-7.8-1-7.5.6-7 .6-20.6.1-5.5-.2-10.9-.1-12 .2z" fill="#2DF8A3"/>
    <path d="M480.8 144.8c-1 .9-3.5 3.5-5.7 5.6-3.2 3.1-5.1 4.1-9.3 4.7-4.5.7-5.9 1.5-9.3 5.3-3 3.4-5 4.7-7.8 5.2-2.2.4-5.9 2.2-8.4 4.1-3.8 2.9-5.2 3.4-7.9 3-2.9-.5-3.4-.3-3.4 1.3 0 1 .5 2.2 1 2.5 1.7 1 5 8.3 5 10.9 0 1.3-1.1 3.8-2.5 5.4-1.4 1.7-3.7 5.5-5 8.5-1.4 3-3.4 6.2-4.5 7.2-4 3.7-1 7.2 6.5 7.7l5 .3v5.5c0 4.7.8 7 5.3 15.5 5.1 9.5 5.3 10.3 4.7 15.3-.6 4.5-.3 5.6 1.7 8.1 1.3 1.6 2.8 3.7 3.4 4.7.9 1.6 1.5 1.7 3.7.7 1.4-.7 3.5-3 4.6-5.1 2.2-4.3 6.4-6.7 10.2-5.7 2.6.6 11.7-2.7 13.2-4.8.4-.7.5-3.7.1-6.9-.6-6.1 0-7.9 4.7-13.9 1.5-1.9 3.1-4.8 3.4-6.5 1.3-5.7 1.6-6.1 4.3-7.4 1.5-.7 5.6-1.4 9.2-1.6 7.8-.3 18-2 19.2-3.2 1.5-1.5-.2-4-3.5-5.2-9.4-3.3-14.2-6.6-17.9-12-6-8.8-5.3-14.4 3.2-23.2 4.9-5.1 5.2-6.7.9-6.8-.9 0-2.8-.9-4.2-2-1.4-1.1-2.9-2-3.4-2-1.1 0-4.4-4.4-6.8-9-2.1-4.2-5.4-8-6.9-7.9-.6 0-1.9.8-2.8 1.7z" fill="#AB1966"/>
    <path d="M395.9 212.3c-2.4 1.3-8.9 4.9-14.4 8.2-5.5 3.2-11.6 6.2-13.5 6.7-4.8 1.3-14 6.1-14 7.3 0 .6.9 2.9 2.1 5 3.8 7.1 5.8 18.2 6.9 37 1 18.9 2.7 25.2 8 30 2.2 1.9 2.2 1.9 3.6 0 .8-1 1.4-2.8 1.4-3.9s1.1-3.6 2.3-5.5c1.3-2 3.1-4.8 4.1-6.4 1.5-2.5 2.1-2.7 8.4-2.7 9.5 0 23.3 1.7 27.3 3.4 5.4 2.2 11.4 2.3 13.8.2 1.1-1 4.2-2.2 6.8-2.7 5.7-1.1 7.5-3.1 6.7-7.5-.4-2.3.2-4.7 2.1-8.7 2.4-5.2 2.5-5.8 1.1-8.5-.8-1.6-2.2-3.5-3.1-4.2-1.3-1.1-1.5-2.5-1-6.9.6-5.4.4-6-4.7-15.6-4.5-8.5-5.3-10.8-5.3-15.5v-5.5l-5-.3c-3.4-.2-5.7-1-7.2-2.4-1.7-1.6-3.1-2-6.1-1.6-2.1.3-5.6-.1-7.8-.8-5.4-1.9-7.4-1.8-12.5.9z" fill="#937053"/>
    <path d="M571.5 1.6c1.4 1.1 3.2 1.4 6.4 1 2.4-.3 5.8-.2 7.5.3 1.7.5 5.1 1.5 7.6 2.1 3.2.9 5.7 2.5 8.7 5.8l4.2 4.5 5.8-1.5c3.2-.9 6.7-1.9 7.8-2.3 2.3-.7 4.9 1.1 13.1 9.3 3.8 3.8 5.5 6.4 6 9 1 5.5 2 6.4 5.5 4.7 3.8-2 7.2-1.9 9.2.3 2.4 2.6 2.2 3.4-1.8 7.2-1.9 1.8-3.2 3.7-2.9 4.2.3.5 2.9 2 5.7 3.3 2.9 1.4 8.2 4.2 11.8 6.3 3.6 2.1 7.8 4.2 9.5 4.6 1.6.4 3.6 1.4 4.6 2.3.9.8 4.9 2.3 8.8 3.3 3.9 1 8 2.6 9 3.5 1.6 1.5 2.8 1.5 8.5.7 10.6-1.7 18.6-7.6 23.6-17.5 3-5.9 4.8-6.9 9-4.7 1.8 1 1.9.6 1.9-15.3V16.3l-5.1-2.2c-3.9-1.6-7.3-2.1-13.7-2.1-7.6 0-9-.3-12.1-2.5-2-1.4-4.7-4.1-6.1-6L701.5.1h-66c-59.7 0-65.8.1-64 1.5z" fill="#524F6B"/>
    <path d="M534.9 631.6c-1.1 1.3-.7 2.5 2.1 7.7 1.8 3.4 4.2 7.2 5.3 8.4 2.1 2.3 2 4.9-.3 12.8-.6 2.2-1.5 5.7-1.9 7.8-.5 2.1-1.3 4.3-1.9 4.9-1.6 1.6-8.2 3-19.1 3.9-11.9.9-14.3 2.4-16.2 9.3-.7 2.6-2.6 5.5-5.1 7.8l-4 3.7 4.8 4.8c2.7 2.7 7.6 6.4 10.9 8.2 6.2 3.5 9.1 5.9 18 15.1l5.3 5.4 3.6-1.9c2-1.1 7.8-6.1 13-11.1 13.8-13.4 17.8-15.3 26.2-12.2 2.7.9 3.7.9 5.8-.5 3.1-2.1 7.5-2.2 8.2-.2.9 2.2 2.7 1.8 5.5-1.1 1.3-1.5 3.7-3.5 5.3-4.5 2.8-1.7 5-4.7 9.9-13.9 3.3-6 5.6-7.9 11.5-9.5 5.4-1.4 15.8-.6 25.3 2 3.8 1 5.2.9 8.3-.3 6.5-2.6 4.3-7-4.9-9.7-3.2-.9-5.9-2.3-6.5-3.5-.6-1.1-2.6-2.2-4.8-2.6-2-.4-4.3-1.1-5.1-1.7-.7-.6-3.8-1.5-7-1.9-3.1-.5-7.3-1.1-9.3-1.4-3.1-.5-4.7 0-8.9 2.6-5 3.3-5.1 3.3-13.7 2.5-4.8-.4-11.1-.9-14.1-1-9-.5-12.2-1.5-20.1-5.6-9.3-5-16.3-11.6-20.1-19.1-3.3-6.6-4.2-7.3-6-5.2z" fill="#B9357D"/>
    <path d="M675.7 598.2c.3 2.9 1.2 6.5 2 8 1.2 2.5 1.1 3.3-1.7 8.7-3.2 6.5-6 8.3-8.9 5.7-1.8-1.7-10.2-3.6-15.6-3.6-3.3 0-3.7.7-6.1 13.6-.2 1.1-1.7 4-3.4 6.5-1.6 2.4-3 5.5-3 6.9 0 4 4.6 9.8 10.4 13 7.6 4.3 8.9 6.1 9.1 12.4.2 4.7.8 6.1 4.1 10.1 3.2 4 10.1 9.5 11.8 9.5.3 0 1.9-1.3 3.6-3 2.9-2.9 3.4-3 12-3 8.1 0 9.6-.3 14.3-2.9 2.8-1.6 7.2-3.2 9.7-3.5 2.5-.4 6.6-1.5 9.3-2.4 4.7-1.7 4.7-1.7 4.7-6.2 0-5.5 2-8.6 6-9.5 2.9-.6 3-.9 3-6 0-3.4-.9-7.2-2.5-10.9-1.4-3.1-2.5-6.9-2.5-8.4 0-4.3-6.7-16.2-12-21.3-5.2-5-8.1-5.8-19.5-5.8-4.5.1-5.2-.3-8.5-3.9-1.9-2.2-4.3-5.1-5.3-6.6-1.5-2.2-2.5-2.6-6.7-2.6h-4.9l.6 5.2z" fill="#FD7BA7"/>
    <path d="M547.3 586.7c-1.3.2-2.3 1.1-2.3 2 0 .8-2.2 3.7-5 6.4-2.7 2.7-5 5.3-5 5.8s-1.2 2.3-2.6 4c-1.4 1.7-2.8 4.6-3.1 6.5-.5 3 0 4 3.7 8 3.1 3.3 4.3 5.6 4.4 7.9.2 4.7 5.8 14.5 11.3 19.9 5.3 5.2 17.8 12.3 23.4 13.3 1.9.4 6 .8 9 1 3 .1 9.3.6 14.1 1 8.6.8 8.7.8 13.7-2.5 4.2-2.6 5.8-3.1 8.9-2.6 2 .3 6.2.9 9.3 1.4 3.2.4 6.3 1.3 7 1.9.8.6 3.1 1.3 5.1 1.7 2.1.4 4.2 1.5 4.8 2.5 1.1 2.2 13.1 6.4 14.4 5.1 1.3-1.3-.3-6.6-2.7-8.7-1.2-1.1-4.3-3.2-6.9-4.7-5.3-3-9.8-8.8-9.8-12.6 0-1.4 1.4-4.5 3-6.9 1.7-2.5 3.3-5.6 3.6-7 .2-1.5.9-4.8 1.5-7.4.6-2.7.8-5.1.5-5.4-.3-.4-4.2.6-8.5 2-6.9 2.4-8.9 2.6-15.2 2.1-9.5-.9-11.3-2.6-10.6-9.7.2-2.9.8-6.2 1.2-7.5.6-1.9.4-2.2-1.8-2.2-1.5 0-4.8 1.3-7.4 3-5.1 3.3-7.3 3.6-10.3 1.8-1.5-1-2.9-.9-6.8.5-3.5 1.3-7.2 1.7-13.3 1.5l-8.4-.3v-7.2c0-6.2-.3-7.5-2.5-9.8-4.6-5-9.2-6.3-16.7-4.8z" fill="#D82362"/>
    <path d="M400.2 158.5c-3.4 2.8-5.8 3.1-8.6 1-1-.7-4.2-1.7-7.2-2.1-4.5-.5-5.8-.3-8.3 1.5-1.7 1.2-6 3.3-9.6 4.6-3.6 1.4-9.5 3.6-13.3 5-3.7 1.4-7.3 2.5-8 2.5-1.9 0-7.1 6-9.4 11-1.2 2.5-3.1 5.8-4.4 7.3-1.3 1.6-2.7 4.1-3 5.5-.4 1.5-1.7 4.8-3 7.4-1.3 2.6-3.1 6.9-4 9.5-1.5 4.5-1.5 4.8.1 5.8 1 .5 2.9 1.9 4.4 3.1 4.8 3.7 9.5 6 16.6 7.8 3.9 1.1 8.2 2.6 9.6 3.4 2.5 1.4 3 1.3 7.3-1.1 2.5-1.4 6-2.8 7.8-3.2 1.8-.4 8-3.5 13.8-6.8 20.2-11.7 20.4-11.8 27.4-9.3 8.8 3.1 14.4 0 19.3-10.6 1.3-2.8 3.4-6.4 4.8-8 1.4-1.6 2.5-4.1 2.5-5.4 0-2.6-3.3-9.9-5-10.9-.5-.3-1-1.4-1-2.3 0-4.2-18.3-18.2-23.8-18.2-1.1 0-3.4 1.1-5 2.5z" fill="#746D58"/>
    <path d="M537.3 304.7c-.9.3-1.3 2.6-1.3 6.6 0 5.3-.6 7.4-4 14-2.3 4.3-5.2 11.3-6.5 15.5-1.4 4.2-2.9 9.1-3.5 10.8-.5 1.7-1 4.3-1 5.8s-.5 3.7-1.2 4.9c-1.6 3.1-4.3 13.8-5.5 21.9-.5 3.7-.5 3.8 2.8 3.8 7.4 0 10.5 1.7 13.8 7.4 1.6 2.9 3.8 7.7 4.7 10.6 2 6.1 6.5 11.7 10 12.6 1.4.4 3.1 1.5 3.9 2.7 1.2 1.7 2.1 1.9 6.9 1.4 5.1-.5 5.6-.3 8 2.4 1.4 1.6 3.2 2.9 3.9 2.9 1.9 0 9.6-7 12.3-11.2 2.8-4.4 3.1-9.6.8-14-6.7-12.9-7.4-27.9-1.9-43.2 1-3 1.4-5.9 1-7.5-.4-1.4-1.1-6-1.5-10.1-1.8-16.1-2.6-19-6.2-22.1-1.8-1.5-5.5-3.5-8.3-4.4-2.7-.9-7-2.9-9.5-4.5-2.5-1.5-6.1-3.1-8-3.5-1.9-.4-4.4-1.4-5.5-2.1-2.1-1.5-2.3-1.5-4.2-.7z" fill="#5267FF"/>
    <path d="M300.2 436.1c-1.2 1.8-1.9 2-5.8 1.4-5.8-.8-7.9-.1-9.3 3.4-.8 1.9-3.6 4.1-8.6 7-4.1 2.3-7.7 4.7-8.1 5.2-.3.6-1.7 1.4-3 1.9-1.7.7-2.4 1.7-2.4 3.7 0 3.5-3.3 10.1-6.6 13-3 2.8-8 3-16.6.7-3.5-.8-7.4-1.2-9.2-.9-6.4 1.4-13.2 3.7-18.1 6.2-5.5 2.8-6.7 4.6-11 17.8-2.6 7.7-2.6 8-.9 11 2.8 5 5.4 7.3 8.9 7.9 4.3.8 5.8 2.7 4.7 5.7-1.1 2.8-.5 4.9 1.1 4.9.7 0 3.2 1.1 5.7 2.4 2.5 1.3 7.1 2.7 10.3 3.1 3.1.4 6.8 1.6 8.1 2.6 1.3 1.1 2.7 1.9 3 1.9.3 0 2.3-1.5 4.3-3.4 2.1-1.8 7.9-5.8 12.8-8.8 6.9-4.3 9.9-6.8 12.7-10.9 2.1-3 3.8-6.4 3.8-7.6 0-1.1 1.3-3.2 3-4.6 3.9-3.4 12.8-8.3 16.4-9.1 2.5-.6 2.7-1 2.2-3.4-1.7-7.7-1.7-9.4 0-15.2 1.3-4.4 2.7-6.9 4.9-8.6 6.5-5 6.6-5.3 5.9-9-.5-2.8-.2-4 1.6-5.9 1.9-2 2.1-3 1.5-7.1-.9-6.3-1.9-7.4-6.4-7.4-2.6 0-4 .6-4.9 2.1z" fill="#A6E32B"/>
    <path d="M553.3 423c-4.2.5-7.6 1.6-11 3.7-2.6 1.7-6.5 3.4-8.5 3.7-5.2.9-6.8 3.6-6.8 11.7 0 5.6-.4 7.2-2.3 9.6-4.3 5.2-12.7 22.2-12.7 25.7 0 3.2.2 3.4 4.4 4 5.8.9 7.2 2.5 5.7 6.7-.6 1.8-1.1 6.2-1.1 9.8-.1 3.8-.7 7.7-1.5 9.1-3.4 5.9-1.3 9.9 11.9 23.3l7.7 7.8 5.2-.6c4.2-.5 6.5-.1 12.2 2.1 11.2 4.2 11.9 4.2 16.5-.4 2.2-2.2 4.7-5.6 5.5-7.5l1.5-3.6-4-3.1c-4.7-3.7-5.2-7.2-1.8-11.5 1.2-1.6 2.6-5.1 3-7.9.5-2.8 1.4-7.6 1.9-10.6 1.8-9.2 1.2-19.6-1.3-22.8-1.8-2.2-4.9-1.3-8.1 2.4-4.7 5.2-6 5.7-9.2 3.3-2.5-2.1-2.6-2.3-1.9-9.8.4-5.7.2-8.9-.9-12.1-1-3.1-1.4-7.6-1.2-14.2.2-9.5 1.2-12.8 3.9-12.8.6 0 2-.7 3-1.5 1.9-1.4 1.9-1.5.1-3.5-1-1.1-2.3-1.9-2.9-1.9-.6.1-3.9.5-7.3.9z" fill="#FEC756"/>
    <path d="M358.4 441.1c-1.7.5-3.7 1.6-4.4 2.4-1.6 1.9-5.4 1.9-7 0-.8-1-3-1.5-6.1-1.5-4.3 0-5.4.5-10.1 4.5-6 5.1-14.7 9.5-18.9 9.5-1.9 0-3 .6-3.4 2-.4 1.1-1.8 2.6-3.3 3.4-3.9 2-5.7 4.4-7.6 10.3-1.9 6.1-1.9 8.2-.3 14.4 1.7 6.5 3.2 7.9 8.3 7.9 3.9 0 4.4.3 5 2.7.3 1.6 1 3.8 1.5 5.1.5 1.3.9 3.9.9 5.8 0 5.6 1.5 7.4 5.9 7.4 3.4 0 4 .4 5.2 3.2.7 1.8 2.9 5 4.7 7 5.2 5.8 7.4 5.3 18.5-4.3 2.3-2 5.3-4 6.7-4.4 1.4-.4 4.1-2.5 6.1-4.6 3.5-3.7 4-3.9 9.7-3.9 5.1 0 6.6-.4 9.2-2.6l3.1-2.7-.4-12.6c-.7-19.3-1.7-24.2-5.5-28.5-1.7-2-3.4-4.9-3.8-6.4-.3-1.5-1.2-4.3-1.9-6.2-.8-1.9-1.6-4.6-1.7-6-.3-2.1-.9-2.5-3.8-2.7-1.9-.1-4.9.3-6.6.8z" fill="#71B4B4"/>
    <path d="M504.5 612.1c-2.9.7-5.4 2.4-9.1 6.4-6.3 6.9-9.4 7.3-15.3 2-4.5-4.1-8.9-4.6-12.9-1.5-1.5 1.2-3.8 2.9-5.1 3.8-2.1 1.6-2.3 2.7-2.7 11.2-.5 13.1-.5 12.4.1 23 .8 13.5.8 13.6 6.5 16.5 3.1 1.6 5.9 4 7.4 6.3 1.3 2 3.6 4.8 5.1 6.2 1.5 1.4 3.8 4.9 5.1 7.7 2.5 5.6 3.8 6.2 8.7 4.4 4.1-1.6 9.4-7.4 10.6-11.7 1.9-6.9 4.3-8.4 16.2-9.3 10.9-.9 17.5-2.3 19.1-3.9.6-.6 1.4-2.8 1.9-4.9.4-2.1 1.3-5.6 1.9-7.8 2.3-7.7 2.3-10.5.4-12.6-2.1-2.3-8.5-13.6-13.8-24.5-4.2-8.4-5.8-10-11.6-11.3-5.3-1.2-7.1-1.2-12.5 0z" fill="#BE6019"/>
    <path d="M0 504.5v17.8l4 3.4c2.6 2.2 4.3 4.8 5 7.4.9 3.3 2.1 4.6 6.6 7.5 5.9 3.8 6.8 5 12.9 17.2 2.8 5.7 4.8 8.4 6.7 9.2 2.6 1.1 8.7 7.4 13.4 13.7 2.8 3.7 20 13.5 22.5 12.8 2.2-.7 6.9-6.1 6.9-8 0-2.1 2.9-4.5 5.5-4.5 1.4 0 3.2-1.2 4.7-3.3 3.1-4 6.8-11.1 6.8-13.1 0-1.4-6.4-7.6-7.9-7.6-.4 0-2.9-2.7-5.5-5.9-2.5-3.3-6.4-7.8-8.6-10.2-2.3-2.3-4.8-5.5-5.7-7.3-.9-1.7-3.4-4.9-5.7-7.2-8.3-8.2-16.1-17.6-17.5-21.1-1.3-3.2-1.3-4.2.2-8.4.9-2.5 1.7-5.2 1.7-5.8 0-.9-5.3-1.1-20.2-.9-18.5.3-20.5.1-23-1.6L0 486.8v17.7z" fill="#F583BE"/>
    <g fill="#62A035">
        <path d="M102.1 411.9c-5.3 5.9-11.1 16.5-11.1 20.5 0 1.6 1.3 5.6 2.9 9 1.6 3.4 3.7 8 4.6 10.2 1.6 3.8 2.2 4.3 7.4 5.8 6.2 1.9 13.7 7.9 16.5 13.3.9 1.8 3.1 4 4.9 4.9 1.7.9 4.2 2.9 5.5 4.5 2.3 2.8 5.5 3.8 6.6 2 1.6-2.5 11.5-1.9 24.8 1.4 2.2.6 3.4 0 7-3.3 3.6-3.4 5.5-4.3 10.5-5.1 8.1-1.3 10.6-2.8 9.8-6.1-.4-1.4-1.1-5.2-1.5-8.5-.5-3.3-1.4-8.7-2-12-.7-3.3-1.4-9.3-1.7-13.3-.4-6.6-.6-7.2-2.6-7.2-1.2 0-4.2 1.1-6.6 2.5-6 3.4-9.5 3.2-18.5-1.5-4.2-2.2-8.4-4-9.2-4-.8 0-3.2-.9-5.4-2-4.8-2.4-8.8-2.5-13.4-.3-3.2 1.5-3.7 1.5-5.3.1-1-.9-3.7-2.1-6-2.7-5.1-1.4-7.3-3.4-7.3-6.7 0-2.3-3.1-6.5-4.7-6.3-.5 0-2.8 2.2-5.2 4.8z"/>
        <path d="M165.5 414.4c-5.1 1.9-6 2.6-6 4.6 0 1.9 1.3 3.3 5 5.7 6.2 4.1 8.5 4.1 11.3.3 2.9-3.8 2.8-7.5-.3-10.5-2.8-2.9-2.4-2.9-10-.1z"/>
    </g>
    <path d="M469.5 557c-1.4 2.7-6.1 8.7-10.4 13.2-10.1 10.5-14.1 15.6-14.1 17.9 0 1.7 2.6 7.9 5.5 12.9.8 1.4 1.7 3.7 2 5.2.5 2.8 4.5 4.8 9.4 4.8 3.2 0 7.1 2.5 7.1 4.6 0 .9 1.1 1.4 3.6 1.4 2.8 0 4.6.9 7.5 3.5 5.9 5.3 9 4.9 15.3-2 4.3-4.6 5.9-5.6 10.4-6.5 6-1.3 14.4 0 17.5 2.7 1 .9 3.3 5 5.2 8.9 1.9 4 4 7.6 4.6 8 1.8 1.1 5.1-3.5 4.3-6-.4-1.2-2.5-4.1-4.6-6.5-3.5-3.7-4-4.8-3.5-7.7.3-1.9 1.7-4.8 3.1-6.5 1.4-1.7 2.6-3.5 2.6-4s2.3-3.1 5-5.8c5.8-5.6 6.3-7.7 1.9-8.6-4.4-1-11.7-8.9-12.4-13.4-.3-2-1.9-6.3-3.5-9.7-1.7-3.4-3-6.7-3-7.4 0-1-2.1-1.1-9.7-.5-5.4.5-15.3.8-22 .9-11.1 0-12.5-.2-15.2-2.2-1.7-1.2-3.3-2.2-3.5-2.2-.3 0-1.7 2.2-3.1 5z" fill="#1F29AC"/>
    <path d="M455.7 54c-2.4 2.1-6.3 4.8-8.8 6-4.8 2.2-10.3 6-13.2 9.1-1 1-2.5 1.9-3.3 1.9-1 0-1.4.8-1.2 2.2.3 2 1 2.3 5 2.6 5.4.4 7.5 2.1 5.9 5.1-.6 1.1-1.1 2.7-1.1 3.5 0 2.6 4.1 5.6 7.7 5.6 3.6 0 5.6 1.6 9.8 8 7.5 11.2 10.1 14.3 13.6 16.7 4.3 2.8 5.9 6.4 3.9 8.8-1.7 2-2.7 1.9-4.7-.5-1-1.1-3-2-4.6-2-2.7 0-2.9.2-2.2 2.7.9 3.9 2.7 5.6 10.9 10.5 3.9 2.3 7.3 4.7 7.5 5.3.2.5 2 2.3 3.9 4 1.8 1.6 4.5 5 5.8 7.5 4.2 8.1 8.7 11.8 9.8 8.2.7-2.1 10.7-11 15.4-13.7 2.5-1.5 4.5-4.6 9.2-14 3.3-6.7 6-12.9 6-13.9s-1.4-2.3-3.7-3.2c-2.1-.9-4.7-2.4-5.8-3.3-2.8-2.5-11.8-4.9-20.4-5.5-4-.3-7.6-.7-7.8-1-.8-.8-2.5-8-3-12.7-.3-3.2.1-5.7 1.4-8.4 1.8-3.8 2.4-4.3 7.7-6.4 2.8-1.1 2.8-1.3 2.1-6.9-.4-3.1-1-6.1-1.4-6.5-.5-.4-2.2.3-3.9 1.7-3.3 2.9-5.9 3.1-11.2 1.3-4.8-1.8-9-5.2-15.7-13-4.3-5.1-7.9-5-13.6.3z" fill="#CB52F6"/>
    <path d="M162.2 614.8c-.9 1.5-2 5.6-2.3 9.2-.9 8.7-2.2 13.1-4.9 16.8-1.8 2.4-2.1 3.7-1.5 6.4 1.6 7.6 1.7 17.1.1 22.2-.9 2.8-1.6 7.8-1.6 11.1.1 3.3 0 7.8 0 10-.2 7.1 1.7 17.2 3.9 20.8 1.5 2.4 2.1 5.1 2.1 9 0 3.8.5 6.2 1.8 7.8l1.9 2.2 5.9-2.3c12-4.6 13.3-5.3 16.9-9 3.5-3.6 3.7-4.1 3.1-8.2-1.8-11.7-1.8-13.1-.1-18.3.9-3 2.3-5.9 3.1-6.6 1.5-1.2 8.3-3.9 15.4-6 1.9-.6 4.1-1.6 4.8-2.1 1.6-1.3 1.6-8.3 0-11.1-.7-1.2-1.6-6.3-1.9-11.2-.9-13.3-1.9-15.8-8-21.3-7.1-6.2-8.8-8-12.4-12.5-2.4-3-4.2-4.1-8.5-5.1-3-.8-7.9-2.1-10.8-2.9-5.3-1.4-5.3-1.4-7 1.1z" fill="#C37093"/>
    <path d="M390 578.1c-8.6 3.2-9.3 3.2-12 .9-2.1-1.8-3.3-2.1-7.2-1.6-2.6.4-5.9 1.3-7.5 2.1-1.5.8-3.5 1.5-4.4 1.5-3 0-12.7 4.9-14.3 7.2-2 2.8-2 9.4-.1 12.8 2.1 3.6 1.8 9.3-.5 12.3-1.1 1.4-2.6 4.2-3.2 6.3-1 3.1-2.5 4.6-6.8 7.1-3 1.8-6 4.3-6.7 5.6-1.7 3-1.7 9.7 0 9.7.8 0 3.5 1.1 6.2 2.4 3.2 1.7 5.4 2.2 6.9 1.7 3.2-1.2 18.1 2.1 21.7 4.8 2.6 2 3.4 2.1 5.8 1.1 1.6-.6 4.5-2.9 6.7-5.1 3.2-3.3 4.4-3.9 8-3.9 2.6 0 5.9-1 8.8-2.6 2.9-1.6 6.9-2.8 10.6-3.1 5.5-.5 6-.8 6-2.9 0-1.3-.7-4.1-1.6-6.3-1.8-4.6-.8-9.7 3.1-15.5 2.8-4.1 2.9-4.7 1.5-9-.5-1.7-1.2-4.4-1.5-5.9-.3-1.6-2.1-4.4-4-6.3-3.2-3.2-3.5-4-3.5-9.4v-6h-3.2c-1.8.1-5.8 1-8.8 2.1z" fill="#71F0F0"/>
    <path d="M648.2 463c-2.3 1.7-4.2 3.4-4.2 4 0 1.5-5.1 3.7-10.5 4.5-4.2.5-5.7 1.4-9 5-3.8 4.1-4.4 4.3-11 4.9-10.5 1-11.4 1.4-13.7 7.1-1.1 2.7-2.7 6.6-3.6 8.5-.9 1.9-1.9 6.6-2.4 10.5-.4 3.8-1 8.9-1.4 11.3-.5 3.2-.2 4.9 1.2 7 3 4.3 4.4 8.2 4.4 11.8 0 3.2 2.8 7.4 4.9 7.4.5 0 2-1.5 3.5-3.4 2.1-2.8 3.2-3.4 6.3-3.4 7.9-.1 21.4-2.2 23.5-3.7 3.1-2.1 6-1.9 9.3.6l2.7 2.2 7.6-4c6.4-3.3 8.2-4.9 10.5-8.8 2.3-3.9 2.7-5.5 2.2-8.6-.5-2.7-.2-4.5 1.1-6.3 2.3-3.6 1.4-9.3-2.5-15.7-1.8-2.8-3.4-6.5-3.7-8.2-.4-1.8-1.5-5.7-2.5-8.8-1-3-1.9-6.9-1.9-8.7 0-8.5-3.8-10.3-10.8-5.2z" fill="#5EB2F8"/>
    <path d="M636.2 534.5c-2 1.4-13.6 3.3-23.5 3.8-3 .2-4.4.9-6.7 3.7-1.6 1.9-3 4.2-3 5.1 0 3.2-10.7 15.3-16.2 18.4-4.5 2.5-5.8 4-8.3 9.2-1.6 3.4-3.7 7-4.6 8-.9 1-2.9 4.2-4.4 7.1-2.3 4.2-2.9 6.6-2.9 12l-.1 6.7 8.4.3c6.1.2 9.8-.2 13.3-1.5 3.9-1.4 5.3-1.5 6.8-.5 3 1.8 5.2 1.5 10.1-1.7 3.5-2.2 6.1-2.9 11.6-3.3 3.9-.3 9.7-1.5 12.9-2.8 17.9-6.9 17.6-6.6 17.9-16.4.4-10.7 1.8-12 10.1-9.1 5.9 2 23.4.6 27.1-2.2 4.2-3 4.2-4.7.2-3.9-1.9.3-7.7 1.1-13 1.6-8.3.8-10.4.7-16.3-1-8.8-2.5-9.6-3.2-9.6-8.9 0-2.6-.7-5.6-1.5-6.7-2-2.7-1.8-5.6.7-11l2.3-4.6-2.4-1.9c-2.8-2.3-5.9-2.4-8.9-.4z" fill="#CDFD51"/>
    <path d="M12.1 631.6c-1.2 1.5-2.1 3.1-2.1 3.5 0 .5-.6.9-1.3.9-2.5 0-4.8 3.6-4.5 7.1.3 2.9-.1 3.4-1.9 3.7l-2.3.3v34.5C0 714.5.1 716 1.9 716c2.8 0 7.2 3.9 8.8 7.9 2.3 5.4 6.3 7.2 6.3 2.8 0-5.3 5.1-8.5 8.4-5.2 1.7 1.7 10.1 5.5 12.2 5.5.8 0 2.6-1.3 4-2.9 5.4-6.1 12-6.5 14.5-.9 1.8 4.3 4.9 4.4 6.8.3 1.8-3.9 2.8-4.5 7.6-4.5 4.9 0 6.1-.7 7.4-4.3 1.5-3.9.2-5.9-6.1-9.6-7.5-4.2-16.3-13.2-19.8-20.1-1.6-3.2-3.4-6.1-4-6.5-.6-.4-2.1-2.7-3.4-5.3-1.4-2.6-4.1-6.5-6.2-8.7-3.9-4.1-8.2-11.5-15.6-26.8-4.7-9.7-6.9-11-10.7-6.1z" fill="#F021E3"/>
    <path d="M729.5 673c-3.3.3-6.9 1.1-8 1.7-1.1.6-4.2 1.4-7 1.8-2.7.4-7.4 2-10.2 3.6-4.7 2.6-6.2 2.9-14.2 2.9-8.7 0-9 .1-12.4 3.2-4.6 4.4-5.6 9.5-4.2 20.3.8 5.6-1.3 13.5-4.4 17-3.1 3.5-3.1 5.2 0 9.1 1.6 2 2.9 4.7 2.9 6v2.4h59l5-5.2 5-5.2V672l-2.7.1c-1.6.1-5.5.5-8.8.9z" fill="#2EB5E3"/>
    <path d="M93.4 569.2c-1.5 2.9-3.8 6.7-5.1 8.5-3.3 4.3-2.4 6.6 3.8 9.1 3.9 1.7 5.3 2.9 6.5 5.8.9 2 5.2 7.4 9.6 12 5.7 5.9 8.8 10 10.5 14.1 1.4 3.2 3.2 7.4 4.1 9.3.8 1.9 1.8 5.7 2.1 8.5.6 5 .6 5 5.1 6.1 2.5.7 7.2 2.2 10.5 3.4 3.3 1.2 7.5 2.5 9.3 2.7 3 .5 3.2.3 3.2-2.5 0-1.6 1-4.1 2.1-5.6 2.6-3.3 3.9-7.9 4.8-16.6.3-3.6 1.4-7.8 2.4-9.3.9-1.4 1.7-4.3 1.7-6.4 0-2.1.9-6.3 2-9.3 2.4-6.6 2.6-11.3.4-13.1-.8-.7-2.4-2.9-3.4-4.8-2.2-4.3-11.7-14.5-14.3-15.4-1-.4-2.6-.3-3.5.2-2.2 1.1-14.5 2.4-24.7 2.5-6.9.1-16.5-1.6-22.7-3.9-1.3-.5-2.3.6-4.4 4.7z" fill="#7D1A7C"/>
    <path d="M148 694c-.8.5-3 1-4.8 1-5.9 0-12.6 2.2-15.7 5.1-4.4 4.1-11.8 7.6-17.5 8.4-4.7.6-5.3.5-8.5-2.4-5.6-4.8-14.4-3.9-17.7 1.9-.9 1.7-2.4 3-3.2 3-.8 0-2 1.5-2.6 3.4-1.2 3.8-2.5 4.6-7.8 4.6-4.5 0-5.5.6-7.3 4.5-1.9 4.1-5 4-6.8-.3-2.5-5.6-9.1-5.2-14.5.9-1.4 1.6-3.2 2.9-4 2.9-2.1 0-10.5-3.8-12.2-5.5-3.3-3.2-8.4-.1-8.4 5.1 0 2.2 3.1 3.4 8.6 3.4 3.6 0 2.9 2.4-1.6 6-2.2 1.7-4 3.6-4 4.1 0 .5 28.7.9 71 .9h71v-5.1c0-3.6-.6-5.8-2-7.6-1.4-1.8-2-4.1-2-7.9 0-3.7-.7-6.7-2.5-10-1.6-3-2.5-6.3-2.5-9.1 0-4.3-1.3-8.3-2.8-8.3-.4 0-1.4.5-2.2 1z" fill="#C769DA"/>
    <path d="M163.9 144.5c-2.1 3.5-2.2 3.5-8.8 3.4-8.9-.3-12.1.7-15.6 4.7-2.7 3-3.8 3.5-11 4.5-7.3 1-10.3 1.6-17.3 3.5-1.5.4-3 2.1-4.2 5-1.7 4-2.3 4.4-5.4 4.4-3.6 0-4.6 1.2-4.6 5.9 0 2.3-.8 3.1-4.9 5.1-8.4 3.9-7.5 7.6 2 8.9 6.2.8 9.4 2.3 12.9 6.1 4.5 4.8 14.3 9 23.4 10.1 9.9 1.1 17.4 2.9 23.9 5.9 2.2 1.1 3.2 1.1 5.1 0 2.1-1.1 6.5-.9 10.2.3.4.1 1.9-3.8 3.5-8.7 1.8-5.5 3.9-9.8 5.4-11.2 2.3-2.1 2.5-3 2.5-11.2 0-9.8-.6-11.3-6-14-3.2-1.5-3.5-2.1-3.3-5.7.1-2.2.6-6.4 1.1-9.4.8-4.9.7-5.6-1.6-8.2-3.1-3.8-4.8-3.7-7.3.6z" fill="#713C3C"/>
    <g fill="#037B46">
        <path d="M229 394.5c-1 1.2-1 1.5.3 1.5 2.5 0 4.7-1.1 4.1-2.1-.8-1.4-3-1.1-4.4.6zM225.2 405.5c-1.3 2.9-6.7 6.5-9.7 6.5-1.1 0-4.2-.8-6.9-1.7-5.5-2-4.3-2.8-12.1 8.2-2.1 3.1-5.4 6.5-7.3 7.7l-3.3 2.1.4 7.1c.3 3.9 1 9.8 1.7 13.1.6 3.3 1.5 8.7 1.9 12 1.2 8.4 1.9 10.1 4.8 11.4 1.5.7 5 2.8 8 4.7l5.3 3.6 3.8-2.2c2-1.3 6-2.9 8.7-3.7 11.5-3.3 13-3.5 19.3-1.9 7 1.8 12.5 2 15.3.6 2.9-1.6 6.9-8.5 7.8-13.5.8-4.1.6-4.6-2.4-8-2.8-3-3.9-3.5-7.7-3.5-3.4 0-5-.6-6.6-2.3-3-3.2-2.8-5.6 1-10.1 2.9-3.5 3-4.1 2-7-.7-1.8-1.2-4.4-1.2-5.8 0-1.4-1.6-4.5-3.5-6.9-1.9-2.4-4-5.8-4.6-7.6-.8-2.5-1.9-3.5-4.7-4.3-6.1-1.7-8.7-1.3-10 1.5zM255.7 414.7c-.3.5-.9 3.2-1.3 6-.4 3.6-.3 5.3.6 5.8 1.8 1.1 4-2.2 4-6 0-3.3-2.3-7.4-3.3-5.8z"/>
    </g>
    <path d="M621.7 676.5c-5.8 1.6-8.1 3.5-11.4 9.5-4.7 8.8-7.2 12.4-9.1 13.4-1.1.6-3.8 2.8-6.1 4.9-3.4 3-4.1 4.2-3.5 6 1 3.3 2.3 4.6 7.6 7.3s6.8 5.8 4.9 10c-.6 1.4-1.1 3.6-1.1 4.9 0 1.3-1.2 3.7-2.6 5.4l-2.6 3.1h39.8l6.8-4.1c6.6-4 16.3-7.8 19.9-7.9 1 0 2.1-1 2.6-2.3.5-1.3 1.6-2.9 2.4-3.6 2.7-2.2 5-11.5 4.3-16.8-1-6.1-1-7.8-.1-13 .7-4 .6-4.2-3.2-6.6-2.2-1.4-5.4-4.3-7.2-6.6l-3.2-4-4.1 1.9c-3.1 1.4-4.8 1.6-6.7.9-1.4-.6-5.9-1.4-10-1.9-4.2-.6-8.7-1.2-10.1-1.4-1.4-.2-4.7.2-7.3.9z" fill="#DCBD5E"/>
    <path d="M307.1 280.7c-7.8 4.3-8.5 5-10.8 10.1-1.8 4.1-2.5 7.6-2.6 13.3-.2 6-.6 8.2-2.1 9.8-2.2 2.4-3.6 8.1-4.3 16.9-.6 8.4.1 10.7 3.7 12.2 1.7.7 3.7 2.5 4.5 4 1.7 3.2 6.5 5.5 9.9 4.6 3.1-.8 9.6-9 9.6-12.1 0-2.2 3.9-8.1 7.9-12 1.6-1.6 3.5-2 8.6-2.1 6.3-.1 6.8.1 10.8 3.8 4.6 4.1 7.8 4.8 11.5 2.2 1.3-.9 5.1-1.7 8.9-1.9 8.1-.6 9.1-1.4 7.5-5.8-1.7-4.7-1.5-7.1.8-9.2 3.3-3 3.5-5.3.6-7.6-3-2.4-6.6-8.8-6.6-11.8 0-3.8-2.2-7.3-4.3-6.7-1 .2-4.7-.4-8-1.5-3.4-1.1-8.7-2.3-11.7-2.6-3.7-.4-7.8-1.8-12.6-4.4-3.9-2.2-8.4-3.9-10-3.9-1.6.1-6.7 2.1-11.3 4.7z" fill="#71A0A0"/>
    <path d="M721.5 547.9c-1.6 1-5.3 4.2-8.1 7.2-6.2 6.5-11.4 10.9-13 10.9-.6 0-2.4-.6-4-1.4-3.3-1.8-5.3-.9-8.4 3.4-3.1 4.4-5.4 5.3-16 6.1-7.6.7-10.6.5-14.9-.8-6.8-2.1-8.3-1.2-9.4 5.6-1.1 6.8-.5 8.2 3.1 7.5 2.3-.5 3.2-.1 4.5 1.9 2.6 4 10.4 6 20.7 5.1 8.7-.6 8.7-.6 10.6 2.1 1.1 1.5 3.5 4.5 5.4 6.7 3.3 3.6 4 4 8.5 3.9 11.4 0 14.3.8 19.5 5.8 5.3 5.1 12 17 12 21.3 0 1.5 1.1 5.3 2.5 8.4 1.6 3.5 2.5 7.5 2.5 10.5 0 4.2.3 4.9 2 4.9 2 0 2-.7 2-54.9v-54.8l-6.1-.7c-9-.9-10.1-.8-13.4 1.3z" fill="#21CFC3"/>
    <path d="M51.1 487.5c-2.5.6-4.6 1.8-4.8 2.6-.2.8-1.1 3.7-2 6.5-1.4 4.5-1.5 5.6-.2 8.7 1.4 3.5 9.2 13 17.5 21.1 2.3 2.3 4.8 5.5 5.7 7.2.9 1.8 3.4 5 5.7 7.3 2.2 2.4 6.1 6.9 8.6 10.1 2.6 3.3 5.5 6.2 6.5 6.5 1 .3 3.1 2.1 4.7 4 1.7 1.8 3.2 3.2 3.4 3 .2-.2 3.9.6 8.3 1.9 5.4 1.4 10.6 2.1 16 2.1 8.3-.2 20.7-1.2 23.8-2.1 2.5-.8 2.1-2.8-.8-4.4-1.4-.8-2.8-2.4-3.1-3.7-.7-2.6 0-14.7 1-17.8 1.1-3.4-4.1-5.5-11.7-4.9l-6.2.6-5.4-4.7c-5.7-4.8-11.9-8.5-14.6-8.5-3.2 0-7.5-3.1-9.4-6.9-1.2-2.3-3.2-4.3-5.1-5.1-1.7-.7-4-2.6-5.1-4.1-1.1-1.6-4.1-4.1-6.7-5.6-5.3-3.1-6.2-4-6.2-6.8 0-1.4-1.8-3-5.9-5.3-6.4-3.4-7.3-3.6-14-1.7z" fill="#EE5B78"/>
    <path d="M9.5 362.8l-9 4.8L.2 389c-.1 13.5.1 21.7.8 22.4.5.5 1 2.5 1 4.3 0 4.5 1.8 8 4.6 8.7 1.3.4 6.1.3 10.6 0 7.5-.6 8.5-.4 11 1.6 3.3 2.5 9.4 11.4 10.9 15.8 1.3 3.9 3.9 4.7 9.4 3.2 4.6-1.3 5.7-2.9 9-13.6 1.1-3.5 2.5-5.6 4.2-6.5 2.7-1.5 5.5-6 6-9.9 1.5-11.9 1.5-13.8-.1-16.8-1.6-3.2-6.5-5.5-10.8-5.1-8.9.8-13.1-1.9-16.8-11.1-1.2-3-2.9-6-3.7-6.7-2.8-2.2-6.3-7.7-6.3-9.9 0-2.9-5.4-7.4-8.8-7.4-1.5 0-6.7 2.2-11.7 4.8z" fill="#AD05B8"/>
    <path d="M22.9 274.2c-3.4 3.4-6.6 4.8-10.7 4.8-2.7 0-6 .9-8.3 2.2L0 283.4v84.5l9.3-5c5-2.7 10.4-4.9 11.9-4.9 1.4 0 4 1.2 5.7 2.6l3.1 2.6 3.1-3.4c1.8-1.8 4.3-5.1 5.7-7.3 1.4-2.2 2.8-4.2 3.2-4.5.4-.3 1-2.3 1.3-4.4.3-2.2 1.8-5.1 3.2-6.6 3.2-3.3 3.1-4.7-.5-9-4.3-4.9-4-8.3 1-11.8 4.4-3 5-5.5 2.1-8.6-1-1.2-2.6-4.4-3.6-7.1-.9-2.8-2.6-5.7-3.7-6.6-1.9-1.5-2-2-.9-4.8 1.8-4.2.9-6.9-3.6-11.3-4.4-4.3-11.8-6.2-14.4-3.6z" fill="#961705"/>
    <path d="M509.1 389.6c-7.4 2.3-11.1 7.1-11.1 14.3 0 3.8-.4 4.3-4.7 7.2-4.7 3-5 3-15.1 2.6-12.1-.6-13 .1-9.1 6.7 2.2 3.7 2.4 5.1 2.2 14-.3 11.6.7 14 6.1 15 2 .4 4 1.5 4.6 2.6 1.2 2.2 7.9 6 10.6 6 .9 0 4.5 1.5 7.8 3.4 3.4 1.8 7.5 3.6 9.1 4 1.7.4 3.8.9 4.7 1.2 1.3.4 2.5-1 4.9-5.8 1.7-3.5 4.2-7.6 5.5-9.1 2-2.4 2.4-4 2.4-9.6 0-8.1 1.6-10.8 6.8-11.7 2-.3 5.4-1.7 7.5-3 2.1-1.4 4.9-2.9 6.3-3.4 3.3-1.3 2.7-3.1-1.8-5.2-4.8-2.3-8.2-6.5-10.2-12.8-1-2.9-3.1-7.7-4.7-10.6-2.5-4.3-3.8-5.5-6.7-6.4-4.8-1.3-9.7-1.1-15.1.6z" fill="#71C8C8"/>
    <path d="M678 379.7c-.8.3-2.1.6-2.8.9-1 .3-.6 1.6 1.4 5.1 3.6 6.4 11.5 18.2 12.5 18.9 1.2.7 1.1 6.5 0 8.3-.6 1-.5 2.7.5 4.9.8 1.9 1.4 4.6 1.4 6.1 0 3.1 5.2 13.6 8.3 16.9 2.6 2.8 6.9 5.2 9.4 5.2 1 0 5 1.6 8.8 3.6 7.4 3.7 10.1 3.9 19.6 1.4l3.9-1.1V418c0-22-.4-32.7-1.2-34.4-1.4-3.2-5.7-4.1-11.8-2.6-8.3 2.2-11.6 2.2-21.1.2-8.7-1.9-24.9-2.7-28.9-1.5z" fill="#EAFCE5"/>
    <path d="M588 411.5c-.7.8-2.1 1.5-3.1 1.5-1.1 0-2.9 1.6-4.3 3.7-3.8 6.1-10.6 11.5-13.6 10.8-2.6-.6-8.4 1.7-9.6 3.7-1.4 2.3-1.2 20.3.3 24.8 1.1 3.2 1.3 6.4.9 12.1-.7 7.5-.6 7.7 1.9 9.8 3.2 2.4 4.5 1.9 9.2-3.3 3.2-3.7 6.3-4.6 8.1-2.4 2.5 3.2 3.1 13.6 1.3 22.8-.5 3-1.4 7.8-1.9 10.6-.4 2.8-1.8 6.3-3 7.9-3.6 4.6-2.9 7.9 2.4 12 3.6 2.7 5.6 3.5 8.8 3.5 6 0 6.9-1 7.2-7.7.5-10.9 2-20.8 3.6-24.3 4.9-10.6 6.1-14.7 5.9-20.5-.5-21.4-.3-31.6.8-36 2.2-8.9 2.4-13 .6-18-1.8-5.4-4.5-10.6-6-11.7-1.8-1.3-8.2-.8-9.5.7z" fill="#EAD348"/>
    <path d="M509 482.1c-8.9 3.9-14.1 5.8-18.5 6.8-11.6 2.7-12.5 3.1-15 6.9-1.4 2-3.5 5.3-4.8 7.2l-2.4 3.4 2.9 4.5c1.5 2.5 4.2 5.8 5.8 7.3 4.2 3.8 4.1 8.7-.4 15.3-2.6 3.8-3.6 6.5-4.1 11.1-.7 5.9-.6 6.1 2.4 8.6 3.7 3.2 12.5 4.4 23.9 3.3 4.3-.4 11.8-1 16.7-1.3l9-.7 3.5-6.7c1.9-3.7 4.5-8.1 5.7-9.7l2.3-2.9-6.1-6.3c-11.8-12.3-13.6-16.2-10.4-21.9.8-1.4 1.4-5.3 1.5-9.1 0-3.6.5-8.1 1.1-9.8.9-2.6.9-3.6-.2-4.7-1.9-1.8-9.8-2.6-12.9-1.3z" fill="#2BA4FC"/>
    <path d="M159.2 212.2c-.7.7-1.2 2.4-1.2 3.9 0 1.4-.8 3.7-1.8 5-1.1 1.3-2.6 4.9-3.5 7.9-.8 3-2.3 8.2-3.3 11.5-.9 3.3-3 8.1-4.6 10.6-2.7 4.4-2.8 5.2-2.8 17v12.4l3.7 5.5c2 3 3.7 5.6 3.8 5.7.2.6 20.9 3.4 22.1 2.9.8-.3 2.2-2.1 3.1-4.1 1.5-3.1 2.1-3.5 5.6-3.5 2.3 0 5.4-.9 7.4-2.1 3-1.9 4.3-2.1 10.3-1.5l6.8.7 3.6-3.8c2.7-2.9 3.6-4.7 3.8-7.8.4-8.5-.3-12.8-2.7-15.7-1.3-1.5-2.6-4.1-3-5.8-.4-1.7-1.4-3.4-2.3-3.6-1-.3-3.6-1.5-6-2.6-5.1-2.4-10.2-1.8-17.5 1.9-7.6 3.8-8.3 2.4-9.5-20.7-.7-12-.8-12.5-3.2-13.7-3.2-1.6-7.2-1.7-8.8-.1z" fill="#712828"/>
    <path d="M99.1 457.4c-.7.8-2.7 1.8-4.4 2.1-4.2.9-6.7 3.2-6.7 6.2 0 3.4 8 12.6 12.9 14.8 2.2.9 4.2 2.4 4.5 3.2 1 2.4-2.2 2.6-6.4.2-3.7-2.1-4.3-2.2-7.3-.9-1.8.8-5.8 1.4-9.1 1.4-5.4.1-6 .4-8.7 3.6-2.8 3.3-3.7 7.3-2.1 9.5.4.6 2.8 2.3 5.4 3.8 2.6 1.5 5.6 4 6.7 5.6 1.1 1.5 3.4 3.4 5.1 4.1 1.9.8 3.9 2.8 5.1 5.1 1.9 3.8 6.2 6.9 9.4 6.9 2.6 0 8.9 3.6 14.5 8.4 5.6 4.8 7.9 5.4 14.9 4 4.3-.9 9.1-8.9 9.1-15.4 0-2.4 1-6.8 2.1-9.6 2.1-5 2.1-5.2.3-9-1-2.1-2.8-5.3-4-7.1-1.2-1.8-2.5-4.8-2.8-6.7-.7-3.8-5.7-9.6-10.4-12-1.7-.9-4-3.2-4.9-5-2.6-5-10.4-11.4-16-13.1-5.9-1.8-5.8-1.8-7.2-.1z" fill="#0FD477"/>
    <path d="M334.6 554.2c-1 .6-4.2 1.3-7 1.7-4.9.6-5.1.7-5.7 4.4-.3 2-1.6 4.8-2.7 6-1.2 1.3-2.2 3.2-2.2 4.3 0 1.1-.6 2.7-1.2 3.5-2.3 2.7-9.5 6.7-13.3 7.5-3.7.7-13.5 6-13.5 7.4 0 .3 3.8 4.6 8.4 9.6 4.5 4.9 9.3 10.8 10.4 13.1 2.7 5.1 9.2 24.5 9.2 27.1 0 2 2.5 3.2 6.8 3.2 1.9 0 2.2-.5 2.2-3.8.1-5.3 1.8-7.7 8-11.5 4.3-2.5 5.8-4 6.8-7.1.6-2.1 2.1-4.9 3.2-6.3 2.3-3 2.6-8.7.5-12.3-1.9-3.4-1.9-10 .1-12.8 1.8-2.6 10-6.5 15.7-7.6 4.8-.9 5.5-2.7 2.6-6.8-1.8-2.4-2.4-4.7-2.4-8.6-.1-7-3.1-10.2-10.7-11.3-7.7-1.1-13-1-15.2.3z" fill="#0E1AE5"/>
    <path d="M80 582.2c-.6.7-1.9 2.9-2.8 4.8-3.4 6.9-18.9 13.8-33 14.6-10.1.6-10.9.9-13.2 5.4-1.1 2.1-2.4 4.1-3 4.5-1.6 1-1.1 5.1.8 6.8 1.3 1.2 3.7 1.7 8.3 1.7 11.1.1 19.4 3 32.4 11.6 2.2 1.5 4.9 1.9 11.7 2.1 16.2.3 22.6 3 26.9 11.5 1.6 3.2 3.2 5.8 3.5 5.8.8 0 6.7-4.3 10.2-7.4 3.8-3.6 4.3-8.2 1.3-14.8-1.1-2.4-3-6.9-4.4-10.1-1.7-4.1-4.8-8.2-10.5-14.1-4.4-4.6-8.7-10-9.6-12-1.2-2.9-2.6-4.1-6.5-5.8-2.8-1.1-5.3-2.9-5.6-3.9-.7-2.2-4.8-2.6-6.5-.7z" fill="#C268D6"/>
    <path d="M2.8 427.5C2 429.4 1.4 436 1.3 445c-.1 8-.5 20.6-.8 28.1l-.6 13.6 2.8 1.9c2.5 1.7 4.5 1.9 22.3 1.6 10.7-.1 20.4-.6 21.5-1.1 1.1-.5 4.1-1.5 6.8-2.1 2.6-.7 4.7-1.5 4.7-1.7 0-.2-.8-2.3-1.9-4.6-2.6-5.9-2.2-19.6.8-25.5 2.9-5.6 2.7-6.7-1.5-9.1-3.1-1.9-4.1-2-7.1-1-4.9 1.6-7.9.5-9.2-3.2-1.5-4.4-7.6-13.4-10.7-15.8-2.4-1.9-3.9-2.1-13.5-1.8l-10.9.2-1.2 3z" fill="#9D22E1"/>
    <path d="M489 698.7c-1.4.3-2.8 1.1-3.3 1.9-.4.7-2.4 1.6-4.5 2-5.3 1-8.7 2.9-11.2 6.4-1.4 1.9-3.5 3.3-6.3 4-2.3.6-6.2 2.2-8.7 3.4-2.5 1.3-7 2.7-10 3.1-3 .4-6.9 1.6-8.6 2.6-1.7 1-3.8 1.9-4.5 1.9-2.8 0-13.5 5.8-16.4 9-1.6 1.7-4.7 4.1-6.7 5.1-2.1 1.1-3.8 2.2-3.8 2.4 0 .3 28.2.5 62.8.5h62.7l1.1-4.7 1.1-4.7-4.4-5.2c-2.5-2.8-5.6-5.8-7-6.5-1.3-.7-2.9-2.1-3.4-3.1-.5-.9-4-3.4-7.7-5.5-3.7-2-8.9-5.9-11.5-8.5-2.6-2.6-5.3-4.7-6-4.7-.7.1-2.3.4-3.7.6z" fill="#C6735A"/>
    <path d="M591.1 527.6c-.9 1.1-2.8 1.5-6.3 1.3-4.8-.3-5.1-.2-6.4 3-.8 1.8-3.2 5.1-5.4 7.3-4.6 4.6-5.4 4.6-16.5.4-5.5-2.1-8-2.6-11.7-2.1-3.1.4-5.5.1-6.8-.7-1.8-1.2-2.3-1-4.6 1.7-1.4 1.7-3.8 5.7-5.5 9-1.6 3.3-3.4 6.7-4.1 7.6-.9 1.3-.5 2.9 2 8 1.7 3.5 3.4 8 3.7 9.9.6 4.1 6.8 11.4 11.1 13 1.7.7 5.3.8 9 .5 6.9-.8 9 0 14.1 4.8l3.2 3 1.8-3.2c1-1.8 2.7-4.6 3.8-6.3 1.1-1.6 3.6-6 5.5-9.6 2.9-5.5 4.4-7.1 8.8-9.7 5.4-3.1 16.2-15.2 16.2-18.3 0-.8-1.1-2.5-2.5-3.8-1.8-1.7-2.5-3.4-2.5-6.1-.1-3.9-2.7-10.4-4.5-10.9-.5-.2-1.6.4-2.4 1.2z" fill="#581B6F"/>
    <path d="M0 24.6v24.6l2.8-.6c11.7-2.4 19.9-3.5 27-3.5 8.1-.1 8.4-.2 11.5-3.5 4.4-4.7 6.6-5.6 13.6-5.6 5.7 0 6.3-.2 7.9-2.8 2.2-3.7 6.7-9.3 11.5-14.2 4.1-4.3 4.5-6.8 2-11-1.5-2.5-2.4-3-8.1-3.6-4.3-.4-7.1-1.3-8.3-2.5C58.1.1 56 0 29 0H0v24.6z" fill="#1E623F"/>
    <path d="M606.1 408.7c-1.9 1.2-4.2 2.3-5.2 2.3-2.3 0-2.4 1.3-.5 4.3 4.6 7 5.3 14 2.5 25.2-1.1 4.4-1.3 13.7-.8 36.2.2 5.8.3 6.2 2.3 5.8 1.1-.2 5.3-.7 9.1-1.1 6.6-.6 7.2-.8 11-4.9 3.3-3.6 4.8-4.5 9-5 6.2-.9 7.7-1.7 12.6-6.6 2.2-2.2 5.3-4.2 6.9-4.6 3.5-.6 4.6-3.4 3.6-8.6-.4-1.7-1-5.2-1.4-7.7-.4-2.5-1.2-5.2-1.7-6-.5-.8-1.2-3.5-1.5-6-.5-4.4-.6-4.5-5-5.3-5.4-.9-12.8-1.5-19.2-1.6-4.4-.1-5.2-.6-10.8-6-4.8-4.6-6-6.5-6-8.9 0-4.1-.8-4.3-4.9-1.5z" fill="#D7220C"/>
    <path d="M730.1 52.7c-1.6 3.2-4.4 7.2-6.3 9-4 3.8-12.3 8.3-15.3 8.3-1.2 0-3.6.3-5.3.6-2.7.6-3.1 1.1-3.7 5.3-1.8 13.1-1.6 17.5.7 21.6 1.3 2.1 4.1 5.1 6.2 6.5 4.8 3.3 6.3 6 7.1 13.1.6 4.9.3 6.3-1.9 10.7-1.4 2.8-2.6 6.2-2.6 7.5 0 1.4-.9 3.6-2.1 5.1-2.4 3-1.8 6.2 1.3 7.2 2.9.9 7.2-2.6 7.6-6.2.2-1.6.9-4.3 1.7-5.9.8-1.7 1.6-4.2 2-5.7.6-3.1 2.7-4 9.3-4 2.6 0 6.4-.4 8.5-.9l3.7-1V86.5c0-36-.1-37.5-1.9-38.5-4.2-2.2-6-1.2-9 4.7z" fill="#48A283"/>
    <path d="M293 491.4c-8 2.9-17 9.8-17 13 0 1.2-1.7 4.5-3.8 7.5-2.8 4.1-5.8 6.7-12.8 11-5 3.1-11.1 7.3-13.4 9.3-4.1 3.6-4.2 3.9-3.1 6.7.9 1.9 2.2 3.1 4.2 3.5 1.6.3 5.4 3.1 9 6.6 3.4 3.3 6.6 6 7 6 .5 0 4.8-2.3 9.6-5 10.4-6 13-6.8 24.8-8 5-.5 9.1-1 9.3-1 .7-.1-.1-3.1-1.8-6.5-1.1-2.2-2-4.6-2-5.5 0-2 4.7-6.5 7.6-7.4 1.2-.4 3-1.6 4-2.7 1.7-1.9 1.7-2.1.1-4.8-.9-1.6-1.7-4.5-1.7-6.5 0-1.9-.4-4.5-.9-5.8-.5-1.3-1.2-3.5-1.5-5.1-.6-2.4-1.1-2.7-5-2.7-3 0-4.8-.6-6.1-2-2.1-2.3-1.9-2.3-6.5-.6z" fill="#D59A8B"/>
    <path d="M154.8 39.6c-6.9 3.5-6.3 7.1 2 11.6 1.9 1 3.2 2.5 3.2 3.7 0 1.1 1.2 3.3 2.6 5l2.6 3.1-2.2 3.4c-2.2 3.6-2.9 4-9.3 5.2-3 .5-4.4 1.5-6.2 4.4-1.3 2.1-3.3 4.1-4.4 4.5-2.2.7-8.2-.1-12.2-1.7-3.8-1.4-8.4 1.2-10.9 6.2-2.4 4.6-5.7 5.9-10.6 4.1-1.9-.7-3.8-.9-4.4-.6-2 1.2-.8 7.5 1.5 7.5.7 0 1.9.7 2.6 1.7.8.9 3.2 2.5 5.4 3.5 2.2 1.1 6 3.2 8.5 4.8 5.7 3.7 12.8 7 14.9 7 .9 0 3.5-2.2 5.9-5 2.9-3.4 5.3-5.1 7.5-5.5 1.9-.4 5.4-2.7 8.7-5.7 4-3.7 7.3-5.6 12.3-7.3 7.5-2.6 10.1-4.4 12.4-9 .9-1.6 3.1-4.4 5-6.2 3.2-2.9 3.3-3.4 2.1-5.6-.7-1.4-3.3-4-5.8-5.9-3.7-2.8-4.6-4.1-5-7.3-.3-2.2-.9-4.5-1.3-5.2-.4-.6-4-2.1-8-3.4-8.5-2.6-9.5-3.2-9.9-6.6-.4-3.5-1.5-3.6-7-.7z" fill="#37C5BC"/>
    <path d="M408.5 573.4c-6.2 1.7-6.5 2.2-6.5 8.6 0 5.4.3 6.2 3.5 9.4 1.9 1.9 3.7 4.7 4 6.3.3 1.5 1 4.2 1.5 5.9 1.4 4.3 1.3 4.9-1.5 9-3.9 5.8-4.9 10.7-3.1 15.7.8 2.3 1.7 5.3 1.8 6.7.5 4.1 3.9 5 11.2 2.9 4.8-1.3 7.4-2.7 10.4-5.7 3.8-3.8 4.1-3.9 13.3-4.7 5.2-.4 10.8-.9 12.4-.9 1.7-.1 4.1-1.2 5.6-2.6 1.5-1.4 3.8-3.3 5.3-4.3 1.4-1 2.6-2.6 2.6-3.7 0-2.4-3.7-5-7.2-5-3.3 0-8-1.7-9-3.3-.4-.7-.8-2.1-.8-3.3 0-1.1-1.1-3.5-2.4-5.3-1.3-1.8-3-5.3-3.7-7.7-1.1-3.5-1.9-4.6-3.9-5-1.4-.3-3.5-1-4.8-1.5-1.3-.5-3.9-.9-5.9-.9-3.1 0-4.4-.8-8.7-5.4-5.6-5.9-8.2-6.9-14.1-5.2z" fill="#71DCDC"/>
    <path d="M628.8 274.3c-1.8.7-2.8 1.8-2.8 3.2 0 1.2-.7 3-1.5 4.1-2.1 2.8-1.8 5.9.8 7.7 1.9 1.3 2 1.8 1 3.4-3 4.3-5.3 9.4-5.3 11.4 0 1.2 1.1 3.2 2.5 4.5 1.4 1.3 2.5 3.4 2.5 4.9 0 1.6 1.5 4.2 3.9 6.8 2.1 2.3 4.8 6.1 6 8.4 3.8 7.5 10.9 10 17.9 6.4 7.1-3.6 16.3-2.2 18.1 2.9 1.2 3.7 5.8 6.1 7.2 3.9.5-.8.9-2.8.9-4.4 0-1.7.7-4.1 1.5-5.5 1.9-3.4 1.9-11.2-.1-15.4-.9-1.9-1.4-4.1-1.1-5 .4-.9 3.8-3.7 7.7-6.2 3.9-2.5 6.8-4.9 6.5-5.5-.9-1.4-7.3-1.1-9.8.6-2.1 1.3-2.7 1.3-6.2-.6l-3.9-2.1-2.1 2.6c-1.6 2-3.6 2.9-8.5 3.8-5.8 1.1-6.4 1.1-7.4-.6-.6-1-2.6-4-4.3-6.5-1.8-2.5-4.2-6.6-5.4-9.1-2.3-4.7-7.2-11.6-9.8-13.8-1.8-1.4-4.5-1.4-8.3.1z" fill="#669BC8"/>
    <path d="M168 590.7c0 1.5-.9 5.3-2.1 8.5-1.1 3.2-1.9 7.5-1.7 9.5.3 4.2-.4 3.8 15.8 7.8 4.3 1.1 6.1 2.2 8.5 5.2 3.4 4.3 4.7 5.6 12.8 13 3.5 3.2 5.7 6.1 5.7 7.3 0 2.8 1.8 6 3.3 6 .7 0 3-1.2 5.1-2.6 3.3-2.3 5.2-2.7 14.2-3.2 6.6-.3 10.8-1 11.4-1.8 1.3-1.5-1.4-10.6-4.1-14.2-1-1.3-2-3.5-2.4-5.1-.7-3.4-9.3-11.8-15.7-15.4-2.5-1.5-6.2-4.9-8.2-7.6-4-5.4-5.2-6.1-10.1-6.1-1.9 0-5.6-.7-8.2-1.6-4.1-1.4-5.5-1.4-10.1-.3-4.7 1.1-5.7 1.1-8.2-.4-4.2-2.5-6-2.2-6 1z" fill="#B8301D"/>
    <path d="M99 2.7c-.8 1.6-1.8 7.1-2.2 12.3-.5 5.2-1.1 12.4-1.4 15.9l-.6 6.4 5.7-.5c3.7-.3 6.5-1.2 8.3-2.7 4.1-3.3 11.3-6.2 15.7-6.4 3.5-.2 4.2.2 6.4 3.5 1.5 2.4 3.7 4.1 6 4.9 2 .6 5.7 2.2 8.2 3.6l4.6 2.5 5.4-2.7c3-1.5 5.6-2.9 5.9-3.2.2-.2.7-2.7 1.1-5.6 2-13.8 3-16.1 10.8-24.7 2.3-2.5 4.1-4.8 4.1-5.2 0-.5-17.3-.8-38.3-.8h-38.4L99 2.7z" fill="#558543"/>
    <path d="M240.6 640.9c-.3.4-5.2 1-11 1.3-9 .5-10.9.9-14.2 3.2-2.1 1.4-4.4 2.6-5.1 2.6-1.9 0-1.7 14.3.2 18.1 1 1.8 1.5 5 1.3 8.7-.2 4.6.3 6.6 2 9.3 1.2 1.9 3.5 6.1 5.1 9.5 1.6 3.3 3.7 6.6 4.5 7.3.9.8 1.6 2.7 1.6 4.3 0 4.2 3 7.9 9.1 11.2 5 2.8 5.3 2.8 6.6 1.1.7-1.1 1.3-4.3 1.3-7.3 0-5.7 2.1-13.3 7.6-27.2 2.8-7 3.4-10 3.5-16.7.2-8.2.2-8.3-4.1-13.9-2.3-3.1-4.6-7.1-5.2-9-.9-3.3-2.1-4.3-3.2-2.5z" fill="#D20500"/>
    <path d="M27.9 569.3c-2 1.7-4.4 4.4-5.3 5.9-1.7 3-10.9 8.8-13.8 8.8-1 0-3.3.8-5.3 1.7L0 587.4v59.7l2.2-.3c1.9-.3 2.3-.8 2-3.7-.2-3.4 1.9-7.1 4.2-7.1.6-.1 2-1.5 3.1-3.2 1.7-2.6 3-3.4 7.8-4.3 6.1-1.2 7.6-2.3 9.5-6.7.9-2.1.8-2.9-.4-3.8-1.6-1.4-1.9-5.6-.4-6.5.6-.4 1.9-2.4 3-4.5 2.3-4.5 3-4.8 13.5-5.5 8-.4 23.5-5 23.8-6.9.1-.5-3.8-3.2-8.7-6.1-4.9-2.8-9.8-6.3-11-7.8-7-9.2-13.2-14.7-16.3-14.7-.4 0-2.4 1.5-4.4 3.3zm7.9 8.3c2.9 2 2.8 2.9-.8 4.4-2.4 1-3.3 1-4.5 0-1.8-1.5-1.9-3.2-.3-4.8 1.6-1.6 2.9-1.5 5.6.4z" fill="#5F0C09"/>
    <g fill="#D91126">
        <path d="M39.2 351.7c-1.1 2.1-3.7 5.5-5.6 7.7-2 2.1-3.6 4.8-3.6 6 0 2.2 3.5 7.7 6.3 9.9.8.7 2.5 3.7 3.7 6.7 3.7 9.2 7.9 11.9 16.8 11.1 4.2-.4 9.2 1.9 10.7 4.9 1.7 3.3 2 9.7.5 13.4-1.4 3.7-.4 5.4 4.9 8.1 2.6 1.3 5.3 3.1 6 3.9.8.9 1.9 1.6 2.7 1.6.7 0 2.9.9 4.8 2.1 1.9 1.1 4 1.8 4.6 1.4.6-.4 2.3-3.2 3.9-6.3 1.6-3.1 5-7.9 7.6-10.5 4.3-4.5 4.5-5 3.2-7-.8-1.2-2.8-2.5-4.4-2.9-1.7-.4-3.6-1.5-4.3-2.3-.7-.8-1.8-1.5-2.5-1.5s-4-1.3-7.4-2.8c-4.9-2.2-6.6-3.6-8.2-6.7-7.2-13.8-9.3-15.5-19.2-16.4-.4-.1-.5-2.5-.1-5.4.5-4.5.2-5.6-1.9-8.5C54.9 354.5 45.5 348 43 348c-.9 0-2.6 1.7-3.8 3.7zM98 394.9c0 1.5 1.1 1.9 7.5 2.5 3.3.3 5.1.3 4-.1-1.1-.3-2.9-1.2-4-1.9-2.2-1.6-7.5-1.9-7.5-.5z"/>
    </g>
    <path d="M671.9 382.5c-.3.2-4.8 1.1-10 1.9-5.1.8-11 2.1-12.9 2.9-1.9.9-6.7 2-10.6 2.5-3.9.6-8.4 1.7-10 2.5-1.6.8-4.1 1.7-5.5 2-2.6.7-6.8 4.2-10.5 8.9-1.8 2.3-2 3.5-1.4 6.9.6 3.3 2 5.3 6.5 9.5 5.2 4.9 6.2 5.4 10.4 5.5 7.9.2 13.4.6 19.1 1.7 5.9 1.1 8 .1 8-3.9 0-.9.8-2.7 1.9-4 1-1.3 2.6-3.8 3.5-5.6 1.8-3.5 9-8.3 12.5-8.3 2.2 0 8.8 3.8 12.9 7.4 2 1.8 2.4 1.8 3.2.6 1.2-1.9 1.3-7.7.1-8.4-1.1-.7-9.2-12.9-12.2-18.4-2-3.8-3.7-5-5-3.7z" fill="#A4F5FE"/>
    <path d="M75.8 427.5c-4.7 3.1-5.2 3.9-5.8 10-.5 4.9-.5 5-4.2 5.3-4 .3-6.8 3-6.8 6.5 0 1-.9 3.6-2.1 5.9-3 5.9-3.4 19.5-.7 25.8 1.6 3.7 3 5.1 8 7.9l6.1 3.3 3.3-3.8c3-3.7 3.5-3.9 9.1-4 3.2 0 7.2-.6 9-1.4 3-1.3 3.6-1.2 7.3.9 4.2 2.4 7.4 2.2 6.4-.2-.3-.8-2.3-2.3-4.5-3.2C96 478.3 88 469.1 88 465.7c0-3 2.5-5.3 6.7-6.2 1.7-.3 3.7-1.3 4.4-2.1 1.3-1.6.5-4.2-5.2-16-1.6-3.4-2.9-7.4-2.9-9 0-2.4-.7-3.3-4.2-5.2-5.3-2.7-6.4-2.7-11 .3z" fill="#70AAF0"/>
    <path d="M232 395.2c-7.3 2.9-11 5.4-12.1 8-1.6 3.9-5 4.5-11.3 1.9-7.8-3.2-9.7-2.7-11.1 3.2-.8 3.1-4.9 6.7-7.6 6.7-1 0-3-1.6-4.5-3.5-2.5-3.4-2.9-3.5-9.3-3.5-4.7 0-8.6.8-13.6 2.7-6.4 2.4-8.9 2.7-18.1 2.3-1.8 0-5.1.7-7.5 1.7-5.7 2.2-13.9 2.2-17.3-.1-2.3-1.5-2.6-2.3-2.6-7.5 0-7.5-1.6-9-9.8-9.6-3.4-.2-7-.6-8-1-2.9-.9-3.6 2.1-.9 4 1.2.8 2.8 1.5 3.6 1.5 2.3 0 10.1 8.9 10.1 11.5 0 3.2 2.3 5.2 7.3 6.6 2.3.6 5 1.8 6 2.7 1.6 1.4 2.1 1.4 5.3-.1 4.6-2.2 8.6-2.1 13.4.3 2.2 1.1 4.6 2 5.4 2 .8 0 5 1.8 9.2 4 9 4.7 12.5 4.9 18.5 1.5 2.4-1.4 5.5-2.5 6.8-2.5 3.8 0 8.4-3.5 12.6-9.5 7.8-11 6.6-10.2 12.1-8.2 2.7.9 5.8 1.7 6.9 1.7 3 0 8.4-3.6 9.7-6.5 1.3-2.8 3.9-3.2 10-1.5 2.8.8 3.9 1.8 4.7 4.3.6 1.8 2.7 5.2 4.6 7.6 1.9 2.4 3.5 5.5 3.5 6.9 0 1.4.5 4 1.2 5.8 1 2.9.9 3.5-2 7-1.8 2.1-3.2 4.8-3.2 6 0 3.5 4.1 6.4 8.9 6.4 3.7 0 4.8.5 7.5 3.5 3.5 3.8 5.6 4.4 7.6 2 .7-.8 4.5-3.4 8.6-5.7 4.9-2.8 7.7-5 8.5-6.9 1.4-3.4 3.5-4.2 9.2-3.4 3.4.5 4.6.3 5.7-1 1.3-1.5 1.1-2-1-3.7-1.9-1.5-3.2-1.8-6.4-1.3-6.3 1.1-10.3 3.3-11.5 6.5-1.4 4.1-4.7 5.9-12.6 6.6-7.7.7-15.2-.8-16.2-3.1-.3-.8.5-3.9 1.8-7 2-4.8 2.1-5.8.9-7.9-1-1.9-1-3.7-.3-7.6 1.1-5.7.6-6.5-4.2-6.5-2.8 0-3-.3-3.1-4-.1-2.3-.7-4.1-1.4-4.3-1.6-.6-4.7-3.8-7.3-7.6-1.9-2.8-2.9-3-6.7-1.4zm-56.5 19.3c3.1 3 3.2 6.7.3 10.5-2.8 3.8-5.1 3.8-11.3-.3-3.7-2.4-5-3.8-5-5.7 0-2 .9-2.7 6-4.6 7.6-2.8 7.2-2.8 10 .1z" fill="#7FABB3"/>
    <path d="M581.2 705.7c-2 1.4-2.9 1.4-5.6.5-8.4-3.1-12.4-1.2-25.9 12-5.1 4.9-10.9 9.9-12.9 11-3.6 2.1-5.8 5.8-5.8 9.9 0 1.8 1.6 1.9 33.4 1.9h33.4l2.6-3.1c1.4-1.7 2.6-4.1 2.6-5.4 0-1.3.5-3.5 1.1-4.9 1.9-4.2.4-7.2-5.3-10.3-5.4-2.9-5.8-3.5-8.2-9.6-1.2-3.1-2-3.7-4.3-3.6-1.5 0-3.8.7-5.1 1.6z" fill="#9463CE"/>
    <path d="M337.4 697c-9.6 13.3-14 18.1-19.7 21.7-8 4.9-12.7 7.3-18.5 9.2-4.7 1.6-4.7 1.6-4.4 5.7.2 2.3-.1 4.5-.7 4.9-3.5 2.1 1.1 2.5 29.4 2.5H354v-3.6c0-2.9.7-4.3 3.6-7 3.4-3 3.6-3.6 3.1-7.4-.3-2.2-1.3-5.2-2.4-6.7-3.7-5.3-4.3-7-4.3-13.5 0-9.6-.1-9.8-7.4-9.8-6.1 0-6.3.1-9.2 4z" fill="#45C6BC"/>
    <path d="M296.5 542c-10 1-13.8 2.3-24 8.1-4.9 2.8-9.2 5.3-9.4 5.5-.8.8 4.3 10.6 6 11.5 1 .5 2.3 2.6 2.9 4.6 1.4 4.4 10 13.6 14.2 15.4 2.5 1 3.4.8 7.7-1.8 2.6-1.7 6.5-3.3 8.6-3.7 3.8-.8 11-4.8 13.3-7.5.6-.8 1.2-2.3 1.2-3.4 0-1 1.1-3.2 2.5-4.9 3.2-3.8 3.2-6.9-.2-10.6-1.6-1.6-4.8-5.5-7.2-8.6-3-3.9-5-5.6-6.5-5.5-1.1.1-5.2.5-9.1.9z" fill="#8FE713"/>
    <path d="M684.8 237.4c-6 3.6-8.5 6.4-10.8 12.5-1.1 3.1-3.2 7.7-4.5 10.4-3.2 6.1-3.6 18-.7 21.8 1.9 2.4 5.2 11.5 5.2 14.1 0 .8 1.9 2.4 4.2 3.6 3.8 1.9 4.5 2 6.5.7 2.4-1.6 8.9-2 9.7-.6 1.1 1.6 12.9 2.3 17.1.9 3.2-1 4.1-1.8 4.3-4 .5-4.1-1.3-6.5-6.8-9.3-5.5-2.8-7.1-4.8-9.5-11.9-1.2-3.5-1.5-6.4-1-10.5l.7-5.7-3.7-2c-5.9-3.1-8-9.3-5.5-16 1-2.6.5-6.5-.8-6.3-.4 0-2.4 1.1-4.4 2.3z" fill="#F37430"/>
    <path d="M583.8 6.3c-1.6 1.3-2.8 3.3-2.8 4.5 0 1.3-.7 3.9-1.5 5.9-2 4.9-1.9 5.6 1.3 7.5 1.5.9 5.4 4.3 8.7 7.5 3.3 3.3 8.3 7.2 11 8.7 4.5 2.5 19.1 7.8 28.7 10.4l3.8 1 4.5-6.7c4.9-7.3 5.2-8.3 3.1-10-.7-.6-1.6-2.9-2-5-.4-3-1.9-5.2-5.9-9.3-8.3-8.2-10.9-10-13.2-9.3-1.1.4-4.7 1.4-7.9 2.3l-5.9 1.5-3.6-4.1C598.4 7 592.9 4 588.8 4c-1.3.1-3.5 1.1-5 2.3z" fill="#17006F"/>
    <path d="M219.6 711.4c-3.9 4-14.5 9.6-17.8 9.6-1.3 0-4.9-1.3-8-2.8l-5.8-2.8-3.2 3.4c-3.2 3.3-9.6 7.2-11.8 7.2-.6 0-3.4 1-6.1 2.1l-4.9 2.1V741h76v-2.4c0-1.3 1-3.5 2.1-5 1.8-2.3 2-3.1 1-5.2-.6-1.4-1.1-3.9-1.1-5.7 0-2.9-.6-3.5-5.5-6.1-3.1-1.6-6.5-4.2-7.6-5.7-1.1-1.6-2.4-2.9-2.9-2.9s-2.5 1.5-4.4 3.4z" fill="#4E126D"/>
    <path d="M77.5 2.4c-3 2.4-3 2.4-1.2 5.4 2.5 4.4 2.1 6.8-2 11.2-4.8 4.9-9.3 10.5-11.5 14.2-1.6 2.6-2.2 2.8-7.9 2.8-7 0-9.2.9-13.6 5.6-3.1 3.3-3.4 3.4-11.5 3.5-7.1 0-15.3 1.1-27.1 3.5C.6 49.1 0 49.8 0 52c0 2.7.2 2.7 6.8 3.3 3.9.3 8.3 1.4 10.7 2.6 2.1 1.2 5.6 2.1 7.6 2.1 3.6 0 11.4-3.5 15.4-7 1.1-1 4-2.7 6.5-3.9 2.5-1.1 7-3.4 10-5.1 4.8-2.7 6.1-3.1 10.5-2.5C82 43.2 83.2 43.1 89 40.2l5.5-2.8.8-7c.4-3.8 1.1-11 1.5-15.9.4-5 1.3-10 2-11.2.6-1.2 1.2-2.4 1.2-2.7 0-.3-4.4-.6-9.7-.6-8.9 0-10.1.2-12.8 2.4z" fill="#BF541C"/>
    <path d="M453.6 701.1c-1.7 1.3-3.5 1.9-4.9 1.6-1.2-.3-4.3-1.1-6.9-1.8-7.4-1.9-10.5.2-12.2 8.1-.3 1.6-1.9 3.2-4.3 4.5-2.6 1.4-3.9 3-4.5 5.2-.9 3.7-4.8 5.3-10.8 4.6-2.5-.3-4.2.1-5.9 1.6-2.9 2.5-8.7 2.7-14.6.6-5.5-2-9.5-1.9-15.5.5-2.8 1.1-7 2-9.4 2-5.9 0-10.6 4.1-10.6 9.4v3.6h24.9c28 0 28 0 36.6-8.1 3.8-3.6 13.5-8.9 16.4-8.9.7 0 2.8-.9 4.5-1.9 1.7-1 5.6-2.2 8.6-2.6 3-.4 7.5-1.8 10-3.1 2.5-1.2 6.4-2.8 8.7-3.4 4-1 7.8-4.4 6.7-6.1-.2-.4-1.8-1.1-3.5-1.4-1.7-.4-4.5-2-6.2-3.6-3.6-3.5-3.7-3.5-7.1-.8z" fill="#8E2597"/>
    <path d="M382.4 290.7c-1 1.6-2.8 4.4-4.1 6.4-1.2 1.9-2.3 4.1-2.3 4.8 0 2.8-3.3 11.1-5.1 12.7-2.2 2-2.4 4.4-.7 9.1 1.6 4.4.6 5.2-7.5 5.8-3.8.2-7.6 1-8.9 1.9-3.7 2.6-6.9 1.9-11.5-2.2-4-3.7-4.5-3.9-10.8-3.8-5.1.1-7 .5-8.6 2.1-4 3.9-7.9 9.8-7.9 12 0 3.1-6.6 11.4-9.6 12.1-1.6.4-4 0-6-1l-3.5-1.6-5.4 5.3c-5 4.8-5.5 5.7-5.5 9.7 0 2.8-.9 5.8-2.4 8.5-1.6 2.6-2.3 5-1.9 6.3.8 3.3-1.4 5.2-6.2 5.2-3.2 0-4.9.7-7 2.6-1.6 1.4-4.2 3.1-5.9 3.7-6.8 2.3-14.6 9.7-14.6 13.8 0 2.2 5.3 4.2 6.9 2.6.6-.6 1.1-2.3 1.1-3.7 0-4 2.5-6.6 7.4-7.9 2.5-.6 5.7-2.2 7.1-3.5 2.1-2 4-2.5 11.5-3.1 8.6-.7 9.1-.8 12.1-4.2 2.9-3.4 5.3-7.9 7.9-15 .7-1.8 3.7-5.8 6.7-8.9 3-3.2 6.3-7.4 7.3-9.4s2.6-4.2 3.4-4.9c.9-.8 1.6-2.3 1.7-3.5 0-1.1 1.3-4.4 2.8-7.1l2.8-5h5.8c5.8 0 5.9 0 7.9 4 2.6 4.9 5.5 5.5 12.2 2.6 5.5-2.5 7.7-2.6 9.4-.6 1.8 2.2 5.3 1.8 8.2-.8 1.4-1.2 3.5-3 4.7-4 2-1.6 2.2-2.4 1.6-8-.7-6.2-.6-6.4 2.9-10.6 2.8-3.3 3.6-5.2 3.6-8.2 0-5.3 2.2-9.3 6-10.9 4.1-1.7 20.8-.8 27.4 1.5 2.8.9 7 1.8 9.5 1.9 4 .1 4.6-.2 4.6-1.9s-.9-2.1-5.1-2.6c-2.8-.4-6-1.1-7.1-1.7-2.6-1.4-17.5-3.2-26.5-3.2-6.3 0-6.9.2-8.4 2.7zm-83.6 65.5c1.8 1.8 1.5 4.6-1 8.9-2.4 4.3-5.1 5.7-7.3 3.9-2.7-2.2-1.8-6.5 2.1-10.4 4-4 4.4-4.2 6.2-2.4zm-8 21.1c.4 2-2.5 3.4-4 1.9s-.1-4.4 1.9-4c1 .2 1.9 1.1 2.1 2.1z" fill="#8FBB1C"/>
    <g fill="#C0A54C">
        <path d="M30.2 577.2c-1.6 1.6-1.5 3.3.3 4.8 1.2 1 2.1 1 4.5 0 3.6-1.5 3.7-2.4.8-4.4-2.7-1.9-4-2-5.6-.4zM649.4 586.8c-.6.4-1.6 1.6-2.2 2.8-1.8 3.4-18.6 10.8-27.3 12-4 .6-4.7 1-5.7 3.8-.7 1.8-1.2 5.1-1.2 7.4 0 6.1 2.1 7.8 11.1 8.6 6.4.5 8.4.3 14.4-1.9 3.9-1.3 9.1-2.5 11.6-2.5 6.6 0 15 1.8 17 3.6 2.9 2.6 5.7.8 8.9-5.7 2.9-5.6 3-6.1 1.5-8.9-.8-1.6-1.5-4.2-1.5-5.9 0-5.1-.9-6.1-5.2-6.1-5.7 0-13.7-2.9-15.5-5.6-1.5-2.4-3.8-3-5.9-1.6z"/>
    </g>
    <path d="M525.4 7.3c.5 5.9.3 8.5-1.4 13.6-3.2 10-2.9 10.8 3.1 11.6 2.8.4 9.2.4 14.3 0 5-.3 12.2-.8 16-1 5.1-.3 7.6-.9 9.5-2.4 1.4-1.2 4.4-3.1 6.6-4.2 3.3-1.7 4.3-2.9 5.8-7.3 2.4-7.3 2.2-8.2-1.5-9-1.8-.4-6-1.9-9.3-3.5C559 .5 556.3 0 540 0h-15.3l.7 7.3z" fill="#5ABB71"/>
    <path d="M503.8 171c-8.3 8.6-9 14.3-3 23 3.7 5.4 8.5 8.7 17.9 12.1 1.8.6 3.5 2 3.8 3 .8 2.4 3.9 2.4 6.2 0 1-1 3-2.6 4.4-3.5 2.9-1.8 3.6-4.5 4.5-16.6.6-8.7-1.8-13-10.6-18.7-5.8-3.8-7.1-4.3-12.4-4.3-5.9 0-6.1.1-10.8 5z" fill="#8FF201"/>
    <path d="M190.2 472.6c-1.2.8-5 2-8.4 2.5-5.1.8-6.9 1.7-10.6 5.1-3.6 3.3-4.8 3.9-7 3.3-14.2-3.5-21.7-3.8-25.5-1-2.2 1.6-1.6 6.5 1.4 11.5 1.6 2.6 2.4 3.1 4.2 2.5 5.7-1.8 8.2-1.6 12 .9 3.6 2.4 4 2.5 6.7 1.1 1.9-1 5.8-1.5 11.2-1.5 8.7 0 11.3 1 15.9 5.8 2 2.2 5.4 2.8 7.6 1.4.6-.4 2.4-4.5 3.9-9.2 1.5-4.7 3.3-9.4 4.1-10.5 2.7-4 1.7-5.2-8.7-11.4-4.2-2.5-4-2.5-6.8-.5z" fill="#EBAE68"/>
    <path d="M0 555.1c0 30.2.1 32.1 1.7 31.4 1-.4 3.2-1.2 4.8-1.7 6.4-2.1 13.7-6.2 15.3-8.6.9-1.4 3.7-4.5 6.2-6.9l4.5-4.4-4.9-9.2c-6.1-11.4-5.9-11.2-12.3-15.3-4.2-2.7-5.4-4.1-6.3-7.3-.9-3.3-6.6-10.1-8.5-10.1-.3 0-.5 14.4-.5 32.1z" fill="#3240BB"/>
    <path d="M205 680.2c-3 1-7.1 2.4-9 3-5.1 1.7-6.7 3.4-8.5 9.3-1.7 5.2-1.7 8.2.2 18.5.7 4.2 1.2 4.7 6.3 7.2 3 1.5 6.5 2.8 7.8 2.8 3.3 0 13.9-5.6 17.8-9.6 1.9-1.9 3.9-3.4 4.4-3.4 1.6 0 1.1-5.6-.6-7.1-.8-.7-2.9-4-4.5-7.3-3.1-6.3-7.6-14.7-8.1-15.1-.2-.1-2.8.6-5.8 1.7z" fill="#B095EC"/>
    <g fill="#F86CA7">
        <path d="M316.6 2.5c-2.3 3.5-2 5 1.8 7.8 6.3 4.9 11.6 4.4 11.6-1 0-2.9 2.3-3.9 5.7-2.4 3.2 1.4 4.9.2 5.5-3.9l.5-3h-11.8c-11.3 0-11.7.1-13.3 2.5zM351 1c7.9 1.3 10.8 2.8 12 6.6 1.4 4.2 5.6 7.6 8.9 7.2 2.4-.3 2.6-.7 2.3-4.6-.3-5.2 1.7-5.6 5.8-1.2 2.7 2.9 6.2 3.8 8.6 2.2.6-.4 1.7-2 2.5-3.7 1.9-4.1 4.2-4.2 8.1-.5 3.2 3.1 3.5 3.2 9.8 2.5 4.3-.4 7.5-1.4 9.5-2.8 2.5-1.8 4.2-2.2 10-2 5.6.2 7.4-.2 9-1.6 1.1-1.1 2.9-2.1 4-2.4 1.1-.3-19.8-.5-46.5-.5-26.7.1-46.5.4-44 .8z"/>
    </g>
    <path d="M231.2 197.7c-1.8.7-4.2 5.8-4.2 9 0 1.5 1.4 4.8 3 7.2 2.3 3.4 3 5.5 3 9.3v4.8l4.8-.1c2.6-.1 7.4-.4 10.7-.8l6-.6.6-4c.3-2.2.9-5.1 1.3-6.5.6-2.1-.1-3.6-3.4-7.8-2.3-2.9-4.7-5.2-5.3-5.2-.7 0-3.2-1.4-5.7-3-4.2-2.8-7.7-3.6-10.8-2.3z" fill="#711414"/>
    <path d="M340.1 646.1c-2.7 1.1-2.6 1.9.4 7.9 1.4 2.7 2.5 6 2.5 7.2.1 1.3.7 3.4 1.5 4.8 2.1 3.7 1.9 9.3-.4 11.4-2.3 2.1-5.6 11.8-4.8 14.1.5 1.1 2.2 1.5 7.3 1.5 4.9 0 6.5-.3 6.1-1.3-3.6-9.8-3.5-11.1 1.8-13.3 4-1.6 4.3-2.6 1.5-6.1-3-3.9-2.5-5.8 3.5-11.8 3-3.1 5.5-6 5.5-6.5 0-1.1-4.6-4.7-6.8-5.4-5.2-1.7-16.2-3.1-18.1-2.5z" fill="#716464"/>
    <path d="M702 .6c0 1.1 5.2 6.9 8.3 9.1 2.7 2 4.3 2.3 11.8 2.3 6.5 0 9.9.5 13.4 2 2.6 1.1 4.9 2 5.1 2 .2 0 .4-3.6.4-8V0h-19.5c-10.7 0-19.5.3-19.5.6z" fill="#A568B1"/>
    <path d="M0 728.5V741H18.7l4.6-4.3c2.6-2.4 4.7-4.8 4.7-5.4 0-.6-2.9-1.4-6.7-1.8-8.7-.9-9-1.1-10.3-5.1-1.3-3.8-6.2-8.4-9.1-8.4-1.8 0-1.9.8-1.9 12.5z" fill="#B975F3"/>
    <path d="M66 420c-.7 1.7-2.5 3.8-4.1 4.7-2.6 1.5-4 4.6-8.5 18.5-.4 1.1.3 2.1 2.4 3.2 2.9 1.5 3.1 1.5 4.6-.9 1.1-1.7 2.7-2.5 5.3-2.7 3.8-.3 3.8-.3 4.3-5.3.7-6.1 1.1-6.9 6.2-10.1 3.3-2.1 3.8-2.8 2.7-4-1.1-1.3-10-6.4-11.2-6.4-.3 0-1 1.4-1.7 3z" fill="#715050"/>
    <path d="M145.3 496.2c-2.7 1.3-2.8 1.6-.7 5.8 1.6 3.1 1.6 3.5-.5 8.4-1.1 2.8-2.1 7.1-2.1 9.5 0 3.1-.9 6.1-3 9.7l-3 5.3 2.2 1.6c1.3.8 2.6 1.5 3 1.5 1.6 0 3.8-3.3 3.8-5.7 0-1.6 1.3-3.7 3.5-5.7 3.5-3.2 4.4-5.9 2.5-7.1-1.8-1.1-1-5.7 2.1-11.5 1.7-3.2 3.7-6.1 4.5-6.4 2.3-.9 1.6-2.5-1.8-4.6-3.6-2.2-7.1-2.4-10.5-.8z" fill="#717878"/>
    <path d="M290 732c-.8.5-4.4 1.2-8 1.5-3.6.4-9.1 1.3-12.4 2.2-9.5 2.3-14.8 2-21.7-1.3l-6.1-2.9-1.9 2.4c-1 1.3-1.9 3.4-1.9 4.7v2.4h27.1c30.2 0 29.8.1 29.9-6.8 0-3.4-1.8-4.2-5-2.2z" fill="#81F546"/>
    <path d="M655.5 731.4c-3.3 1.3-8.7 3.9-11.9 5.9l-6 3.7H672v-2.3c0-1.3-1.2-4-2.7-6-3.3-4.3-5.2-4.5-13.8-1.3z" fill="#76B8A9"/>
    <path d="M734.1 658.4c-4.5 1.6-6.1 4.1-6.1 9.8 0 5.3-.1 5.3 8.4 4.2l4.6-.7v-7.3c0-8.2-.2-8.4-6.9-6z" fill="#300BB1"/>
    <path d="M558 1c.8.5 2.4 1 3.5 1s4.4 1.4 7.4 3c7.7 4.3 10.9 4.6 14.6 1.6 2.5-2.2 2.8-2.7 1.5-3.6-.9-.6-3.5-.8-6.3-.4-3.5.4-5.4.2-7.2-1-1.6-1-4.6-1.6-8.7-1.6-4.4 0-5.9.3-4.8 1z" fill="#7D7D3F"/>
    <path d="M0 436.2c.1 19 .3 24.8 1.2 23.4.7-1.3.9-6.2.5-14.5-.4-9.7-.2-13.6 1-17 1.1-3.4 1.2-5 .4-6.8-.6-1.3-1.1-3.9-1.1-5.8s-.4-3.7-1-4c-.7-.4-1 8.1-1 24.7z" fill="#15B873"/>
    <path d="M59 1c0 1.6 3.2 2.7 9.5 3.4 5.4.6 6.3.4 9-1.9l3-2.5H69.8C63.5 0 59 .4 59 1z" fill="#76CAD1"/>
    <path d="M736.3 735.4c-2.4 2.5-4.3 4.7-4.3 5 0 .3 2 .6 4.5.6h4.5v-5c0-2.8-.1-5-.2-5-.2 0-2.2 2-4.5 4.4z" fill="#989DFB"/>
    <g fill="#76C764">
        <path d="M463.4 1.1c1.2.8 2.5.8 4 .1 1.8-.9 1.6-1.1-1.9-1.1-3.3 0-3.7.1-2.1 1zM482 1.5c1.6 1.9 4.1 1.9 6.6 0 1.8-1.3 1.5-1.4-3-1.5-4.2 0-4.7.2-3.6 1.5z"/>
    </g>
    <path d="M739.5 381c-.3.5-.1 1.8.4 2.7.9 1.6 1 1.4 1.1-1 0-2.8-.5-3.4-1.5-1.7z" fill="#C11769"/>
</svg>
